<?xml version="1.0" standalone="no"?>
<!DOCTYPE svg PUBLIC "-//W3C//DTD SVG 20010904//EN"
 "http://www.w3.org/TR/2001/REC-SVG-20010904/DTD/svg10.dtd">
<svg version="1.0" xmlns="http://www.w3.org/2000/svg"
 width="700.000000pt" height="700.000000pt" viewBox="0 0 700.000000 700.000000"
 preserveAspectRatio="xMidYMid meet">
<metadata>
Created by potrace 1.11, written by Peter Selinger 2001-2013
</metadata>
<g transform="translate(0.000000,700.000000) scale(0.100000,-0.100000)"
fill="#000000" stroke="none">
<path d="M3435 6182 c-16 -11 -46 -36 -65 -58 -43 -48 -2364 -4023 -2398
-4108 -47 -115 -14 -188 101 -221 44 -13 110 -15 395 -13 l342 3 99 245 c472
1169 814 1717 1155 1845 179 68 363 27 500 -111 100 -101 142 -182 260 -509
55 -151 182 -415 223 -464 l29 -34 36 49 c136 188 328 593 542 1143 48 123 89
235 92 250 4 21 -98 203 -541 961 -319 547 -561 950 -583 973 -66 69 -128 85
-187 49z"/>
<path d="M5086 3482 c-136 -340 -334 -745 -453 -927 -130 -198 -251 -309 -398
-365 -83 -32 -233 -33 -318 -2 -134 49 -269 166 -371 322 -98 149 -216 410
-311 688 -16 45 -31 82 -34 82 -13 0 -107 -127 -180 -244 -87 -139 -241 -438
-350 -678 -72 -161 -222 -515 -235 -555 l-7 -23 1724 0 c1894 0 1789 -3 1860
60 29 26 32 33 31 87 0 37 -8 76 -22 108 -19 42 -874 1517 -891 1537 -3 4 -23
-37 -45 -90z"/>
</g>
</svg>
