<?xml version="1.0" standalone="no"?>
<!DOCTYPE svg PUBLIC "-//W3C//DTD SVG 20010904//EN"
 "http://www.w3.org/TR/2001/REC-SVG-20010904/DTD/svg10.dtd">
<svg version="1.0" xmlns="http://www.w3.org/2000/svg"
 width="330.000000pt" height="330.000000pt" viewBox="0 0 330.000000 330.000000"
 preserveAspectRatio="xMidYMid meet">
<metadata>
Created by potrace 1.11, written by Peter Selinger 2001-2013
</metadata>
<g transform="translate(0.000000,330.000000) scale(0.100000,-0.100000)"
fill="#000000" stroke="none">
<path d="M1600 3200 c-16 -4 -32 -30 -64 -110 -60 -145 -289 -711 -473 -1165
-84 -209 -158 -389 -163 -400 -5 -11 -39 -94 -75 -185 -37 -91 -73 -179 -81
-197 -8 -17 -14 -35 -14 -40 0 -5 89 -8 198 -8 l197 0 320 802 c176 441 323
802 326 803 4 0 9 -8 12 -17 3 -10 98 -247 211 -528 114 -280 256 -634 317
-785 l111 -275 190 0 c104 0 192 -3 194 -6 6 -11 -35 -129 -68 -194 -116 -231
-295 -322 -535 -271 -100 21 -154 41 -503 178 -407 160 -461 177 -635 205
-120 19 -279 0 -378 -45 -60 -28 -156 -99 -204 -151 -58 -63 -158 -237 -201
-351 -19 -49 -71 -246 -87 -325 l-6 -31 142 1 142 0 33 88 c108 293 225 392
451 382 143 -6 225 -28 520 -141 640 -245 670 -255 838 -254 93 0 137 6 214
31 186 59 294 170 416 424 66 138 145 382 145 449 0 9 -33 12 -134 11 l-135
-1 -15 35 c-20 48 -87 209 -246 601 -133 325 -273 668 -419 1025 -43 105 -100
244 -126 310 -27 66 -52 124 -56 129 -8 9 -323 15 -359 6z"/>
</g>
</svg>
