<?xml version="1.0" standalone="no"?>
<!DOCTYPE svg PUBLIC "-//W3C//DTD SVG 20010904//EN"
 "http://www.w3.org/TR/2001/REC-SVG-20010904/DTD/svg10.dtd">
<svg version="1.0" xmlns="http://www.w3.org/2000/svg"
 width="307.000000pt" height="307.000000pt" viewBox="0 0 307.000000 307.000000"
 preserveAspectRatio="xMidYMid meet">
<metadata>
Created by potrace 1.11, written by Peter Selinger 2001-2013
</metadata>
<g transform="translate(0.000000,307.000000) scale(0.100000,-0.100000)"
fill="#000000" stroke="none">
<path d="M1478 2828 c-29 -24 -1456 -2392 -1463 -2429 -9 -49 11 -116 45 -151
l28 -28 1442 0 1442 0 28 28 c33 33 54 102 47 149 -6 34 -1436 2408 -1465
2431 -9 6 -32 12 -52 12 -20 0 -43 -6 -52 -12z m752 -1680 c0 -157 -45 -351
-103 -450 -91 -155 -250 -228 -429 -199 -132 21 -218 79 -333 223 -89 111
-166 187 -201 198 -42 14 -102 -1 -132 -33 -49 -52 -82 -189 -82 -344 l0 -53
-145 0 -145 0 0 73 c0 85 22 239 46 317 43 143 125 249 232 302 64 32 71 33
187 33 114 0 123 -2 188 -32 78 -37 154 -105 243 -219 75 -96 143 -161 178
-170 45 -11 98 5 132 41 41 44 64 128 70 263 3 59 7 113 10 120 2 9 40 12 144
12 l140 0 0 -82z"/>
</g>
</svg>
