<?xml version="1.0" standalone="no"?>
<!DOCTYPE svg PUBLIC "-//W3C//DTD SVG 20010904//EN"
 "http://www.w3.org/TR/2001/REC-SVG-20010904/DTD/svg10.dtd">
<svg version="1.0" xmlns="http://www.w3.org/2000/svg"
 width="812.000000pt" height="812.000000pt" viewBox="0 0 812.000000 812.000000"
 preserveAspectRatio="xMidYMid meet">
<metadata>
Created by potrace 1.11, written by Peter Selinger 2001-2013
</metadata>
<g transform="translate(0.000000,812.000000) scale(0.100000,-0.100000)"
fill="#000000" stroke="none">
<path d="M4000 5868 c-24 -13 -61 -43 -81 -68 -45 -54 -2473 -4213 -2501
-4285 -27 -67 -28 -137 -2 -173 11 -15 42 -38 70 -52 l49 -25 378 0 378 0 108
265 c308 760 563 1266 794 1573 141 187 274 299 425 355 54 20 85 25 162 25
147 0 254 -47 358 -157 96 -102 139 -183 228 -432 120 -338 264 -624 302 -600
21 13 135 191 182 286 140 279 320 790 434 1230 l28 105 -537 920 c-295 506
-553 940 -574 965 -36 44 -109 90 -141 90 -9 0 -36 -10 -60 -22z"/>
<path d="M5726 3179 c-200 -619 -389 -1022 -593 -1264 -228 -271 -517 -328
-779 -153 -205 137 -384 441 -562 953 -21 61 -42 110 -47 110 -17 0 -141 -173
-225 -314 -139 -234 -345 -667 -524 -1103 -31 -76 -56 -140 -56 -143 0 -3 820
-4 1823 -3 l1822 3 49 25 c28 14 59 37 70 52 26 36 25 106 -2 173 -15 37 -949
1653 -968 1674 -2 2 -6 -2 -8 -10z"/>
</g>
</svg>
