<?xml version="1.0" standalone="no"?>
<!DOCTYPE svg PUBLIC "-//W3C//DTD SVG 20010904//EN"
 "http://www.w3.org/TR/2001/REC-SVG-20010904/DTD/svg10.dtd">
<svg version="1.0" xmlns="http://www.w3.org/2000/svg"
 width="307.000000pt" height="307.000000pt" viewBox="0 0 307.000000 307.000000"
 preserveAspectRatio="xMidYMid meet">
<metadata>
Created by potrace 1.11, written by Peter Selinger 2001-2013
</metadata>
<g transform="translate(0.000000,307.000000) scale(0.100000,-0.100000)"
fill="#000000" stroke="none">
<path d="M1489 2847 c-16 -12 -101 -153 -977 -1607 -529 -878 -515 -851 -476
-935 11 -21 32 -48 47 -59 l28 -21 1417 -3 c1334 -2 1419 -1 1451 15 56 29 76
65 76 136 l0 62 -426 705 c-235 388 -560 928 -724 1200 -163 272 -304 501
-313 508 -20 15 -82 15 -103 -1z m-252 -1603 c105 -31 187 -92 289 -217 136
-165 174 -197 237 -197 89 0 145 93 153 254 3 50 7 110 10 134 l5 42 150 0
149 0 0 -47 c-1 -303 -108 -566 -263 -644 -101 -52 -233 -64 -342 -31 -108 33
-162 78 -314 259 -110 132 -145 158 -201 150 -108 -14 -142 -82 -157 -312 l-8
-110 -148 -3 c-131 -2 -148 -1 -154 14 -4 10 1 83 10 164 29 253 99 405 225
492 91 63 245 85 359 52z"/>
</g>
</svg>
