<?xml version="1.0" encoding="UTF-8" ?>
<!DOCTYPE svg PUBLIC "-//W3C//DTD SVG 1.1//EN" "http://www.w3.org/Graphics/SVG/1.1/DTD/svg11.dtd">
<svg width="300pt" height="300pt" viewBox="0 0 600 600" version="1.1" xmlns="http://www.w3.org/2000/svg">
<path fill="#ffffff" opacity="1.00" d=" M 0.00 0.00 L 140.93 0.00 C 130.09 1.08 119.24 2.57 108.77 5.65 C 77.46 14.43 49.46 33.99 29.95 59.95 C 12.07 83.41 1.88 112.29 0.00 141.66 L 0.00 0.00 Z" />
<path fill="#013a89" opacity="1.00" d=" M 140.93 0.00 L 159.25 0.00 C 170.02 1.09 180.80 2.57 191.22 5.62 C 222.55 14.39 250.56 33.97 270.09 59.92 C 287.67 82.94 297.72 111.19 300.00 139.98 L 300.00 160.22 C 298.79 171.50 297.11 182.77 293.72 193.62 C 284.65 224.01 265.39 251.08 240.10 270.12 C 217.08 287.70 188.81 297.72 160.02 300.00 L 140.70 300.00 C 99.73 297.42 60.30 277.45 34.31 245.63 C 14.10 221.62 2.47 191.07 0.00 159.89 L 0.00 141.66 C 1.88 112.29 12.07 83.41 29.95 59.95 C 49.46 33.99 77.46 14.43 108.77 5.65 C 119.24 2.57 130.09 1.08 140.93 0.00 M 136.41 2.59 C 102.53 5.58 69.89 20.78 45.87 44.87 C 20.13 70.05 4.22 105.00 2.30 140.97 C 0.89 163.12 4.55 185.58 12.96 206.12 C 24.46 234.40 45.09 258.79 70.83 275.14 C 101.69 294.89 140.06 302.30 176.08 295.78 C 206.15 290.55 234.40 275.56 255.66 253.67 C 280.57 228.63 295.88 194.30 297.76 159.03 C 300.66 117.05 284.34 74.19 254.14 44.87 C 223.77 14.16 179.34 -1.59 136.41 2.59 Z" />
<path fill="#ffffff" opacity="1.00" d=" M 159.25 0.15 L 300.00 0.00 L 300.00 139.98 C 297.72 111.19 287.67 82.94 270.09 59.92 C 250.56 33.97 222.55 14.39 191.22 5.62 C 180.80 2.57 170.02 1.09 159.25 0.00 Z" />
<path fill="#013a89" opacity="1.00" d=" M 141.80 5.76 C 144.82 5.71 147.85 5.65 150.87 5.60 C 150.85 6.49 150.80 8.27 150.78 9.16 C 149.59 9.18 148.40 9.20 147.21 9.22 C 147.35 16.65 147.83 24.08 147.58 31.52 C 151.02 31.43 154.47 31.49 157.91 31.78 C 155.84 29.65 154.90 26.89 154.48 24.01 C 154.91 23.79 155.77 23.33 156.20 23.11 C 156.67 24.76 157.15 26.40 157.66 28.04 C 162.33 28.99 163.11 22.25 159.53 20.44 C 154.73 17.52 154.34 9.07 159.19 6.19 C 163.11 4.89 163.96 9.68 164.72 12.34 C 164.24 12.48 163.28 12.76 162.80 12.90 C 162.35 11.54 161.89 10.18 161.44 8.83 C 160.10 9.31 158.18 9.28 157.92 11.06 C 156.19 15.26 161.10 17.23 163.00 20.13 C 164.53 24.45 163.29 29.65 159.30 32.19 C 165.36 32.10 171.34 33.25 177.22 34.64 C 180.84 26.31 184.40 17.69 189.61 10.23 C 189.65 19.33 189.38 28.63 187.50 37.55 C 191.07 38.29 194.33 41.00 197.97 40.71 C 198.45 34.40 199.03 28.11 199.49 21.80 C 196.62 27.04 195.71 33.55 192.03 38.16 C 191.81 38.00 191.36 37.68 191.14 37.53 C 194.33 29.54 197.13 21.32 201.18 13.72 C 202.55 20.18 200.75 26.77 200.61 33.28 C 203.46 27.80 204.76 21.59 208.30 16.47 C 208.89 20.38 206.42 23.75 205.22 27.28 C 203.14 31.89 201.72 36.87 199.29 41.26 C 199.21 41.49 199.06 41.96 198.98 42.20 C 208.01 46.03 216.54 51.19 224.01 57.56 C 229.72 52.40 234.00 45.93 238.97 40.09 C 238.27 39.58 236.87 38.55 236.17 38.04 C 236.98 37.15 237.79 36.26 238.61 35.37 C 240.92 37.28 243.23 39.19 245.57 41.07 C 244.76 41.99 243.95 42.90 243.15 43.82 C 242.47 43.20 241.12 41.98 240.44 41.36 C 236.15 46.73 231.55 51.86 227.59 57.48 C 226.97 57.71 225.73 58.17 225.11 58.41 C 241.93 72.04 254.89 90.47 261.99 110.94 C 276.63 152.10 266.38 201.27 235.24 232.19 C 241.01 235.59 247.20 238.20 253.21 241.13 C 249.35 236.15 242.57 233.27 240.44 227.18 C 247.52 232.68 254.02 238.97 260.26 245.41 C 253.58 245.07 248.08 240.29 241.94 238.00 C 245.80 242.88 252.39 245.72 254.59 251.71 C 247.13 246.37 241.09 239.30 233.99 233.50 C 220.87 247.20 204.09 257.25 186.06 263.02 C 147.21 275.60 101.94 266.50 71.69 238.88 C 66.19 245.59 60.03 251.73 54.06 258.02 C 52.72 256.18 49.66 254.73 50.46 252.04 C 51.38 248.71 54.30 246.58 57.08 244.83 C 58.93 240.03 63.47 233.81 69.35 236.68 C 67.28 234.81 65.27 232.88 63.33 230.89 C 57.28 237.07 50.52 242.49 44.15 248.31 C 42.54 246.52 40.92 244.73 39.30 242.95 C 40.20 242.18 41.10 241.41 42.01 240.65 C 43.17 241.96 44.33 243.26 45.50 244.57 C 47.22 243.04 48.95 241.53 50.68 240.02 C 49.60 238.86 48.52 237.71 47.43 236.56 C 48.30 235.72 49.16 234.89 50.03 234.06 C 51.07 235.29 52.10 236.52 53.14 237.76 C 55.16 235.98 57.19 234.19 59.22 232.41 C 57.95 231.02 56.69 229.63 55.45 228.23 C 56.74 227.54 58.04 226.86 59.36 226.21 C 57.96 224.59 56.60 222.96 55.27 221.30 C 51.55 225.32 46.80 228.14 42.55 231.55 C 39.65 233.65 37.02 236.40 33.39 237.18 C 39.40 230.47 47.43 225.76 54.66 220.42 C 52.98 219.18 52.13 214.68 50.26 215.29 C 48.69 217.60 46.74 219.66 44.23 220.97 C 45.10 218.95 46.14 217.03 47.09 215.05 C 39.02 215.84 33.47 223.01 26.15 225.97 C 26.77 222.10 31.40 221.28 34.04 219.07 C 38.67 216.63 43.10 211.56 48.74 212.92 C 48.81 210.00 46.01 207.85 45.01 205.16 C 37.97 209.55 30.50 213.27 23.05 216.90 C 22.49 216.78 21.39 216.54 20.83 216.43 C 28.60 212.03 36.38 207.48 44.68 204.16 C 43.79 202.54 42.81 200.97 41.97 199.33 C 34.06 203.45 25.74 207.02 17.20 209.58 C 20.65 204.07 26.77 201.09 31.13 196.39 C 25.38 198.17 20.22 201.88 14.13 202.46 C 18.75 198.33 25.15 197.23 30.59 194.52 C 33.25 192.94 37.35 193.01 38.36 189.62 C 33.01 175.36 31.16 160.01 31.53 144.85 C 25.57 147.68 18.88 148.61 12.75 151.06 C 18.62 151.28 24.50 151.18 30.38 151.25 L 30.37 153.19 C 21.68 152.95 12.92 153.40 4.30 152.18 C 9.91 148.77 16.60 148.08 22.63 145.70 C 16.93 145.32 11.21 145.50 5.50 145.38 L 5.59 143.52 C 14.38 144.00 23.29 142.89 31.97 144.61 C 31.47 135.72 33.75 126.64 35.84 117.96 L 33.86 119.12 C 26.04 116.77 18.22 114.41 10.39 112.07 C 11.12 109.75 11.84 107.43 12.60 105.13 C 13.42 105.43 15.05 106.04 15.87 106.35 C 15.33 107.98 14.79 109.60 14.26 111.23 C 16.45 111.89 18.65 112.55 20.85 113.20 C 21.35 111.64 21.85 110.08 22.37 108.53 C 23.19 108.85 24.83 109.47 25.64 109.78 C 25.13 111.25 24.62 112.72 24.12 114.19 C 26.70 114.97 29.27 115.76 31.85 116.53 C 32.40 114.78 32.95 113.04 33.52 111.31 C 34.27 111.61 35.76 112.21 36.51 112.50 C 36.45 113.64 36.33 115.90 36.27 117.03 C 37.10 114.51 37.81 111.94 38.64 109.42 C 30.51 106.53 22.62 102.99 14.58 99.87 C 15.34 98.01 16.12 96.15 16.90 94.30 C 19.50 94.09 22.29 93.94 24.54 95.49 C 29.64 99.00 35.97 99.61 41.60 101.95 C 42.26 99.90 44.19 98.17 43.89 95.89 C 43.48 96.21 42.64 96.86 42.22 97.18 C 40.22 96.34 35.57 97.53 35.70 94.50 C 37.49 94.34 39.39 94.85 41.09 94.15 C 43.10 91.51 39.43 89.28 37.06 89.13 C 34.05 89.83 31.25 92.48 28.02 91.14 C 24.70 90.10 20.05 87.15 21.68 83.06 C 23.91 80.31 27.72 81.92 30.31 83.14 C 28.36 83.56 26.37 83.77 24.39 83.98 C 23.44 87.11 26.32 88.63 28.77 89.57 C 30.82 88.59 32.82 87.46 35.01 86.83 C 39.45 86.65 43.38 89.74 45.23 93.65 C 47.17 93.08 47.82 88.72 49.67 86.92 C 41.53 83.16 34.03 77.89 26.80 72.59 C 29.51 72.08 31.60 73.96 33.72 75.28 C 39.16 78.94 44.90 82.16 50.16 86.07 C 51.84 83.73 53.24 81.16 55.22 79.04 C 48.53 75.51 43.05 70.14 36.89 65.80 C 36.20 66.72 35.52 67.65 34.83 68.57 C 33.91 67.80 32.98 67.04 32.06 66.27 C 33.93 63.93 35.75 61.55 37.61 59.20 C 38.30 59.74 39.68 60.82 40.38 61.35 C 39.58 62.31 38.79 63.26 37.99 64.22 C 43.93 68.86 50.02 73.31 55.90 78.03 C 58.08 75.06 60.49 72.25 63.02 69.57 C 59.44 67.00 56.69 63.44 52.99 61.05 C 49.16 58.95 45.11 57.30 41.16 55.45 C 41.36 54.99 41.77 54.08 41.97 53.62 C 45.24 55.10 48.47 56.64 51.75 58.11 C 50.01 54.96 48.16 51.87 46.40 48.73 C 46.91 48.59 47.93 48.29 48.44 48.15 C 50.25 51.46 52.08 54.76 54.02 57.99 C 56.52 62.26 61.04 64.76 63.85 68.79 C 68.84 62.69 75.59 58.32 81.11 52.88 L 81.36 52.55 L 81.52 53.26 C 83.92 51.58 86.35 49.97 88.85 48.45 C 84.04 41.29 80.20 33.54 75.88 26.08 C 77.95 24.95 80.00 23.80 82.05 22.63 C 82.62 23.65 83.18 24.67 83.74 25.70 C 82.23 26.56 80.71 27.42 79.19 28.28 C 80.30 30.26 81.44 32.23 82.57 34.20 C 84.01 33.44 85.44 32.67 86.88 31.91 C 87.42 32.93 87.97 33.96 88.51 34.99 C 87.10 35.74 85.69 36.49 84.29 37.23 C 86.23 40.72 88.32 44.15 89.86 47.84 C 95.77 44.35 101.95 41.27 108.45 39.05 C 104.78 31.22 102.70 22.77 99.64 14.71 C 102.10 14.22 105.34 12.00 107.02 14.98 C 109.82 18.73 112.12 26.12 106.22 28.18 C 107.44 31.63 108.63 35.09 109.61 38.61 C 113.90 36.93 118.31 35.47 122.90 34.97 C 117.26 31.77 115.02 25.14 114.42 19.04 C 114.21 15.79 114.08 11.93 116.70 9.52 C 120.00 8.62 122.08 12.19 123.31 14.66 C 126.05 20.83 128.02 28.96 123.29 34.68 C 127.00 33.61 130.81 33.00 134.63 32.53 C 131.90 30.55 129.53 27.46 130.64 23.90 C 131.67 25.42 132.64 26.98 133.59 28.55 C 134.63 28.55 135.68 28.53 136.72 28.52 C 136.76 26.58 137.38 24.43 136.36 22.63 C 134.09 20.66 130.46 19.87 129.61 16.60 C 128.44 13.31 128.18 8.26 131.98 6.60 C 135.65 6.23 136.77 10.62 137.58 13.32 C 135.70 12.24 134.26 10.59 132.75 9.08 C 131.72 10.56 130.01 12.00 130.75 14.02 C 131.57 17.66 136.37 17.89 137.92 21.05 C 139.63 24.83 139.32 29.53 136.25 32.54 C 139.58 31.92 142.95 31.57 146.34 31.50 C 145.28 24.16 145.68 16.71 145.40 9.31 C 144.22 9.30 143.03 9.29 141.85 9.28 C 141.84 8.40 141.81 6.64 141.80 5.76 M 118.28 26.72 C 119.17 28.50 120.39 30.85 122.71 30.73 C 125.85 24.72 123.56 15.91 117.90 12.09 C 115.22 16.60 116.30 22.16 118.28 26.72 M 102.53 17.77 C 103.44 20.07 104.31 22.38 105.29 24.66 C 106.03 24.17 107.50 23.20 108.24 22.71 C 107.62 20.53 106.79 18.42 105.68 16.44 C 104.89 16.77 103.32 17.44 102.53 17.77 M 183.36 25.37 C 184.58 25.73 185.81 26.09 187.03 26.44 C 187.28 23.22 187.55 20.01 187.68 16.78 C 186.18 19.61 184.81 22.51 183.36 25.37 M 178.23 35.05 C 181.15 35.56 183.99 36.46 186.91 37.02 C 185.74 34.74 186.82 32.11 186.74 29.66 C 185.19 29.22 183.65 28.78 182.11 28.34 C 180.91 30.63 179.65 32.89 178.23 35.05 M 117.28 37.23 C 84.36 46.58 56.32 71.27 42.57 102.57 C 35.74 117.96 32.35 134.85 32.57 151.68 C 36.08 151.87 39.94 152.11 42.91 149.87 C 49.33 145.36 55.89 140.25 63.95 139.33 C 75.11 137.86 85.16 144.03 95.90 145.78 C 106.21 148.04 117.40 145.29 125.56 138.61 C 129.25 135.52 131.64 130.90 131.84 126.07 C 132.66 114.93 127.71 104.32 121.76 95.23 C 111.49 81.90 96.14 73.30 80.05 69.03 C 84.67 63.82 90.70 60.15 96.64 56.64 C 125.43 40.16 161.94 38.82 192.33 51.68 C 223.64 65.09 247.51 94.16 254.38 127.55 C 248.58 128.94 242.73 130.09 236.92 131.42 C 229.37 112.59 221.12 92.20 203.76 80.26 C 202.13 81.78 200.60 83.40 199.15 85.09 C 205.44 92.03 213.13 97.86 217.94 106.03 C 221.06 111.28 224.38 116.56 225.77 122.59 C 221.64 124.61 217.47 126.56 213.31 128.53 C 207.67 116.90 200.47 105.79 190.03 97.92 C 188.77 99.21 187.52 100.51 186.31 101.84 C 196.22 109.24 201.85 120.36 207.37 131.08 C 203.89 132.88 200.28 134.43 196.69 136.02 C 191.61 126.94 187.32 115.90 177.33 111.17 C 183.30 126.02 191.02 140.13 197.32 154.86 C 142.41 154.91 87.51 154.85 32.60 154.89 C 33.34 168.96 36.35 182.96 41.90 195.93 C 54.28 225.28 79.17 249.08 109.05 260.11 C 132.49 268.87 158.72 269.85 182.74 262.83 C 215.21 253.62 242.95 229.48 256.90 198.78 C 269.53 171.32 270.90 138.97 260.66 110.53 C 249.78 79.73 225.35 54.07 195.18 41.58 C 170.70 31.34 142.74 29.72 117.28 37.23 M 19.76 96.03 C 19.21 97.08 18.66 98.13 18.12 99.19 C 20.19 100.06 22.26 100.94 24.33 101.82 C 24.68 100.99 25.39 99.33 25.74 98.50 C 23.95 97.22 21.93 96.36 19.76 96.03 M 29.42 100.26 C 28.66 101.10 27.94 101.98 27.26 102.89 C 30.94 105.18 36.62 105.14 38.78 109.09 C 39.49 107.21 40.23 105.33 41.00 103.47 C 37.10 102.54 33.41 100.78 29.42 100.26 M 37.48 193.46 C 33.90 197.77 28.49 200.93 24.45 205.08 C 29.77 203.22 34.78 200.44 40.16 198.82 C 41.96 196.84 39.74 194.55 39.53 192.38 C 39.02 192.65 37.99 193.19 37.48 193.46 M 59.38 243.76 C 60.30 244.76 61.23 245.76 62.16 246.76 C 64.03 244.83 65.88 242.87 67.74 240.93 C 66.72 240.03 65.69 239.14 64.66 238.26 C 62.46 239.63 60.71 241.54 59.38 243.76 M 54.90 254.26 C 56.75 252.68 58.35 250.84 60.00 249.07 C 58.95 248.33 57.91 247.60 56.86 246.87 C 54.53 248.71 50.97 252.03 54.90 254.26 Z" />
<path fill="#003081" opacity="1.00" d=" M 202.36 42.71 C 206.15 35.20 210.19 27.83 214.11 20.38 C 216.55 21.91 220.09 23.57 219.65 27.05 C 219.01 33.21 215.61 39.00 211.39 43.42 C 208.79 46.16 205.09 43.94 202.36 42.71 M 214.39 23.89 C 211.21 29.59 208.12 35.34 205.30 41.22 C 207.81 41.69 210.93 42.12 212.44 39.48 C 215.48 35.15 220.40 27.89 214.39 23.89 Z" />
<path fill="#003081" opacity="1.00" d=" M 66.54 39.62 C 65.61 37.17 64.60 33.70 67.03 31.76 C 71.09 31.07 74.24 34.59 76.72 37.31 C 80.20 41.70 83.99 47.49 81.52 53.26 L 81.36 52.55 L 81.11 52.88 L 80.53 53.64 C 73.77 51.82 69.14 45.81 66.54 39.62 M 78.47 50.81 C 79.46 49.52 80.36 47.97 79.71 46.29 C 78.06 40.90 74.19 35.65 68.52 34.12 C 67.02 41.24 72.74 47.50 78.47 50.81 Z" />
<path fill="#013a89" opacity="1.00" d=" M 249.25 45.12 C 251.50 46.00 252.91 48.24 254.69 49.81 C 253.84 50.58 253.00 51.35 252.16 52.12 C 250.83 51.11 249.81 49.37 248.09 49.05 C 246.43 50.35 245.02 51.94 243.55 53.44 C 244.73 54.57 245.91 55.70 247.09 56.82 C 246.25 57.64 245.40 58.45 244.56 59.26 C 243.40 58.14 242.25 57.03 241.10 55.91 C 239.27 57.79 237.43 59.66 235.59 61.52 C 237.71 63.42 240.18 65.47 237.31 68.08 C 235.46 66.33 233.64 64.56 231.82 62.79 C 237.59 56.86 243.23 50.78 249.25 45.12 Z" />
<path fill="#003081" opacity="1.00" d=" M 257.25 55.26 C 257.95 55.07 259.35 54.69 260.04 54.50 C 255.06 60.11 248.74 64.33 243.27 69.45 C 244.50 70.92 245.73 72.40 246.95 73.88 C 246.03 74.54 245.12 75.20 244.21 75.86 C 242.64 73.97 241.06 72.10 239.48 70.22 C 245.44 65.28 251.18 60.05 257.25 55.26 Z" />
<path fill="#013a89" opacity="1.00" d=" M 246.21 78.73 C 253.09 73.85 259.97 68.96 266.90 64.15 C 268.26 66.13 269.63 68.09 271.01 70.05 C 270.02 70.70 269.04 71.35 268.06 71.99 C 267.08 70.56 266.09 69.12 265.09 67.70 C 263.21 69.02 261.34 70.35 259.48 71.69 C 260.44 73.00 261.40 74.32 262.36 75.64 C 261.33 76.26 260.31 76.89 259.28 77.52 C 258.43 76.22 257.58 74.92 256.73 73.62 C 254.53 75.15 252.34 76.69 250.14 78.23 C 251.17 79.74 252.21 81.24 253.24 82.76 C 252.27 83.34 251.30 83.93 250.33 84.51 C 248.97 82.57 247.60 80.64 246.21 78.73 Z" />
<path fill="#003081" opacity="1.00" d=" M 258.18 84.19 C 262.54 80.97 267.48 77.77 273.06 77.55 C 275.27 77.35 276.42 79.59 277.80 80.89 C 276.42 83.32 274.62 85.48 272.24 86.98 C 272.26 84.87 273.47 83.13 274.52 81.40 C 271.34 78.13 266.90 80.97 263.67 82.70 C 260.98 84.41 257.17 86.36 257.46 90.10 C 259.46 91.26 261.97 91.04 264.17 91.64 C 261.49 92.93 257.16 95.22 254.94 92.02 C 253.04 89.06 255.98 85.96 258.18 84.19 Z" />
<path fill="#003081" opacity="1.00" d=" M 276.27 91.27 C 278.70 91.06 281.59 90.77 283.49 92.64 C 284.38 95.64 281.66 97.95 279.59 99.61 C 274.53 103.27 267.94 105.99 261.66 104.35 C 259.32 103.22 260.23 100.19 261.70 98.74 C 265.44 94.62 270.83 92.18 276.27 91.27 M 272.28 94.17 C 268.37 95.59 263.79 97.78 263.04 102.35 C 269.91 103.81 277.27 100.44 281.16 94.69 C 278.53 92.72 275.18 93.06 272.28 94.17 Z" />
<path fill="#003081" opacity="1.00" d=" M 263.42 110.60 C 271.50 108.19 279.61 105.89 287.69 103.48 C 287.75 104.07 287.88 105.25 287.94 105.84 C 282.30 108.85 276.62 111.80 271.03 114.93 C 277.95 114.87 284.80 113.51 291.72 113.70 C 290.96 114.88 290.13 116.12 288.63 116.36 C 281.78 118.28 275.01 120.55 268.10 122.26 C 267.58 122.02 266.53 121.55 266.00 121.31 C 271.40 119.19 277.11 118.08 282.61 116.26 C 276.46 116.04 270.41 117.53 264.27 117.23 C 268.76 112.89 274.96 111.12 280.20 107.91 C 274.65 108.89 269.35 110.86 263.93 112.37 L 263.42 110.60 Z" />
<path fill="#013a89" opacity="1.00" d=" M 8.07 117.50 C 16.76 120.18 25.19 123.73 33.49 127.41 C 24.54 129.04 15.25 127.83 6.21 127.39 C 11.77 123.75 19.19 127.18 25.48 126.16 C 20.00 122.70 12.04 122.86 8.07 117.50 Z" />
<path fill="#003081" opacity="1.00" d=" M 266.82 126.03 C 275.26 123.97 283.97 123.29 292.51 121.72 C 292.57 122.29 292.69 123.42 292.76 123.99 C 286.64 126.30 280.46 128.46 274.45 131.04 C 280.81 131.67 287.31 131.13 293.60 132.22 C 293.96 132.67 294.67 133.58 295.03 134.03 C 286.09 134.89 277.13 138.23 268.18 137.10 C 273.81 134.80 280.01 135.05 285.85 133.61 C 279.76 132.85 273.56 133.20 267.51 132.13 C 272.70 128.73 278.90 127.56 284.54 125.13 C 278.61 124.60 272.35 128.51 266.82 126.03 Z" />
<path fill="#013a89" opacity="1.00" d=" M 5.24 134.79 C 13.71 134.92 22.13 136.20 30.55 137.00 C 30.71 137.25 31.04 137.75 31.21 138.00 C 31.04 138.20 30.71 138.60 30.54 138.80 C 24.69 138.42 18.88 137.54 13.03 137.13 C 10.34 136.73 7.19 137.10 5.24 134.79 Z" />
<path fill="#003081" opacity="1.00" d=" M 283.60 140.38 C 287.66 140.71 292.27 138.91 295.91 141.28 C 289.27 142.74 282.39 141.69 275.72 142.81 C 273.07 142.96 272.33 147.48 275.29 147.60 C 282.26 148.57 289.35 146.88 296.34 147.87 C 291.79 150.69 286.08 149.03 281.02 149.76 C 277.05 149.85 270.37 150.38 269.73 145.01 C 271.93 139.60 278.89 140.77 283.60 140.38 Z" />
<path fill="#013a89" opacity="1.00" d=" M 238.14 141.62 C 244.28 141.21 250.41 140.53 256.56 140.22 C 256.80 153.83 254.90 167.47 251.38 180.61 C 245.23 197.50 236.05 213.52 223.37 226.36 C 206.86 243.13 183.99 252.46 160.80 254.85 C 131.22 258.85 100.44 248.85 78.17 229.16 C 82.67 224.67 87.08 220.08 91.55 215.55 C 116.65 236.90 155.04 244.36 184.81 228.58 C 183.03 224.74 181.30 220.87 179.55 217.01 C 182.34 215.56 185.15 214.11 188.09 212.99 C 189.96 217.12 191.74 221.34 194.45 225.01 C 200.78 220.60 206.68 215.58 212.34 210.35 C 230.54 192.67 239.13 166.68 238.14 141.62 Z" />
<path fill="#003081" opacity="1.00" d=" M 270.22 153.16 C 278.80 153.69 287.40 154.16 295.96 154.98 C 290.85 159.17 283.52 158.54 277.56 161.03 C 283.59 161.93 289.89 160.99 295.73 163.03 C 286.85 164.73 277.59 162.55 268.61 162.04 C 274.25 158.33 281.43 158.60 287.60 156.09 C 281.82 155.59 276.03 155.38 270.25 155.08 L 270.22 153.16 Z" />
<path fill="#013a89" opacity="1.00" d=" M 15.04 157.47 C 20.78 157.13 28.40 154.86 31.97 160.95 C 30.29 163.29 28.15 165.67 25.05 165.82 C 18.48 166.47 11.88 167.59 5.27 167.19 C 11.67 163.12 20.29 166.39 26.96 162.92 C 27.39 161.87 27.64 160.75 27.94 159.65 C 20.38 157.45 12.56 160.30 4.87 160.09 C 7.23 156.93 11.65 158.14 15.04 157.47 Z" />
<path fill="#ffffff" opacity="1.00" d=" M 0.00 159.89 C 2.47 191.07 14.10 221.62 34.31 245.63 C 60.30 277.45 99.73 297.42 140.70 300.00 L 0.00 300.00 L 0.00 159.89 Z" />
<path fill="#013a89" opacity="1.00" d=" M 267.56 167.76 C 276.62 168.30 286.04 169.21 294.63 172.18 C 289.75 173.29 284.88 171.37 280.03 170.92 C 275.85 170.03 271.11 170.51 267.56 167.76 Z" />
<path fill="#013a89" opacity="1.00" d=" M 159.25 176.53 C 161.98 175.19 164.74 173.90 167.48 172.59 C 168.76 175.22 170.02 177.87 171.29 180.52 C 168.53 181.83 165.76 183.13 163.00 184.44 C 161.77 181.79 160.52 179.15 159.25 176.53 Z" />
<path fill="#003081" opacity="1.00" d=" M 267.43 176.57 C 273.70 174.59 280.42 176.23 286.25 178.82 C 289.05 180.07 292.21 183.07 290.34 186.37 C 288.46 188.15 285.64 187.49 283.30 187.72 C 283.34 187.31 283.43 186.47 283.48 186.05 C 286.81 186.67 289.69 182.92 286.03 181.00 C 281.24 178.78 273.53 175.12 269.40 180.01 C 270.70 181.76 272.24 183.32 273.61 185.02 C 269.29 184.84 264.30 181.11 267.43 176.57 Z" />
<path fill="#003081" opacity="1.00" d=" M 22.06 183.13 C 26.12 181.93 30.17 180.71 34.23 179.51 C 34.75 182.21 36.22 185.53 33.73 187.72 C 29.75 191.37 24.14 192.58 18.96 193.39 C 16.30 193.59 12.05 193.66 11.28 190.42 C 10.86 187.03 14.83 185.71 17.08 184.18 C 17.19 184.59 17.40 185.40 17.50 185.81 C 15.96 187.03 14.64 188.51 13.83 190.32 C 19.15 192.75 25.25 190.73 30.04 188.02 C 32.34 186.89 31.78 184.21 31.67 182.14 C 29.40 183.02 25.88 182.95 25.67 186.13 C 24.73 186.38 23.79 186.64 22.84 186.89 C 22.57 185.63 22.31 184.38 22.06 183.13 Z" />
<path fill="#013a89" opacity="1.00" d=" M 165.60 189.14 C 168.36 187.83 171.13 186.53 173.92 185.27 C 175.13 187.93 176.36 190.58 177.64 193.21 C 174.89 194.51 172.14 195.80 169.36 197.04 C 168.09 194.41 166.85 191.77 165.60 189.14 Z" />
<path fill="#003081" opacity="1.00" d=" M 263.77 185.82 C 271.82 190.21 280.04 194.60 287.25 200.29 C 278.37 199.95 269.67 197.83 260.87 196.71 C 260.97 196.23 261.17 195.27 261.27 194.79 C 263.50 195.13 265.74 195.46 267.98 195.76 C 268.54 194.29 269.11 192.81 269.68 191.34 C 267.48 189.77 264.46 188.76 263.77 185.82 M 272.50 192.82 C 272.01 193.97 271.53 195.13 271.04 196.28 C 274.22 196.81 277.39 197.41 280.59 197.79 C 277.96 196.03 275.22 194.44 272.50 192.82 Z" />
<path fill="#013a89" opacity="1.00" d=" M 171.80 201.40 C 174.55 200.08 177.32 198.79 180.07 197.48 C 181.31 200.13 182.55 202.78 183.82 205.42 C 181.07 206.74 178.31 208.02 175.55 209.31 C 174.29 206.67 173.04 204.04 171.80 201.40 Z" />
<path fill="#003081" opacity="1.00" d=" M 258.03 202.21 C 264.48 205.46 270.97 208.63 277.38 211.97 C 277.90 210.95 278.42 209.94 278.95 208.93 C 279.97 209.46 281.00 209.98 282.02 210.52 C 280.70 213.18 279.36 215.83 278.04 218.50 C 276.99 217.99 275.93 217.48 274.88 216.97 C 275.48 215.88 276.08 214.79 276.68 213.71 C 270.21 210.43 263.75 207.14 257.23 203.96 C 257.49 203.37 257.76 202.79 258.03 202.21 Z" />
<path fill="#003081" opacity="1.00" d=" M 257.01 215.98 C 255.13 214.68 252.36 213.83 252.17 211.15 C 258.01 214.03 263.31 217.86 268.96 221.09 C 271.06 222.45 273.78 223.50 274.41 226.21 C 268.31 223.35 262.87 219.29 257.01 215.98 Z" />
<path fill="#003081" opacity="1.00" d=" M 247.31 220.32 C 251.82 219.28 256.13 221.76 259.66 224.31 C 263.14 226.97 266.72 230.39 267.29 234.98 C 266.48 237.50 263.35 237.70 261.24 236.87 C 255.50 234.96 250.16 231.19 247.03 225.95 C 246.10 224.27 245.33 221.57 247.31 220.32 M 249.28 223.10 C 248.13 226.71 252.94 230.12 255.78 232.23 C 258.13 233.59 262.72 236.57 264.41 233.09 C 262.09 227.35 256.17 222.79 249.96 222.38 L 249.28 223.10 Z" />
<path fill="#003081" opacity="1.00" d=" M 228.48 242.98 C 227.73 241.02 229.19 239.00 231.05 238.42 C 234.17 238.02 236.53 240.58 238.49 242.61 C 235.64 242.16 232.62 240.33 230.11 242.74 C 231.26 244.38 232.19 246.33 233.97 247.42 C 237.03 247.77 240.67 246.36 243.20 248.74 C 245.85 250.88 249.21 255.14 246.33 258.36 C 243.38 260.01 239.76 257.86 238.63 254.94 C 240.34 255.51 242.02 256.17 243.71 256.83 C 246.44 253.94 243.66 250.67 240.60 249.72 C 235.31 252.07 229.97 247.99 228.48 242.98 Z" />
<path fill="#003081" opacity="1.00" d=" M 89.31 258.04 C 89.94 258.17 91.20 258.45 91.83 258.58 C 88.35 265.30 85.21 272.19 82.16 279.11 C 81.40 278.78 80.65 278.45 79.90 278.13 C 80.51 276.99 81.12 275.86 81.72 274.73 C 79.67 274.61 77.61 274.51 75.55 274.42 C 75.61 273.74 75.73 272.40 75.79 271.72 C 78.04 272.14 80.30 272.51 82.57 272.82 C 83.60 270.62 84.62 268.42 85.62 266.21 C 83.81 265.40 81.99 264.59 80.20 263.75 C 81.90 260.99 84.53 263.52 86.66 264.15 C 87.56 262.11 88.44 260.08 89.31 258.04 Z" />
<path fill="#003081" opacity="1.00" d=" M 207.95 257.99 C 210.65 259.15 209.46 262.04 209.40 264.25 C 210.94 263.63 212.48 263.01 214.02 262.40 C 214.57 264.30 215.11 266.21 215.55 268.16 C 214.36 267.30 213.18 266.43 212.02 265.54 C 207.42 267.24 202.82 268.90 198.25 270.67 C 198.59 271.33 199.27 272.66 199.61 273.33 C 199.07 273.53 198.01 273.93 197.48 274.13 C 196.84 272.43 196.22 270.73 195.58 269.03 C 197.04 268.62 198.50 268.22 199.95 267.81 C 198.71 266.67 197.46 265.53 196.24 264.37 C 198.55 262.91 200.80 265.03 201.07 267.36 C 203.18 266.51 205.30 265.70 207.41 264.85 C 207.59 262.56 207.75 260.27 207.95 257.99 Z" />
<path fill="#003081" opacity="1.00" d=" M 93.97 259.78 C 94.53 260.04 95.66 260.56 96.22 260.82 C 94.80 263.51 93.46 266.24 92.21 269.01 C 94.24 268.63 96.26 268.19 98.27 267.70 C 98.35 268.38 98.51 269.74 98.59 270.41 C 96.11 270.61 93.64 270.86 91.18 271.19 C 89.98 273.75 88.79 276.31 87.64 278.89 C 88.83 279.46 90.02 280.02 91.21 280.60 C 91.72 279.95 92.75 278.66 93.26 278.01 C 93.84 278.99 94.42 279.97 94.99 280.97 C 92.02 284.37 88.07 282.00 85.02 280.14 C 87.40 273.10 91.20 266.66 93.97 259.78 Z" />
<path fill="#003081" opacity="1.00" d=" M 203.59 264.97 C 202.89 263.50 200.10 261.55 202.84 260.62 C 203.88 261.66 204.83 262.80 205.79 263.92 C 205.24 264.18 204.14 264.71 203.59 264.97 Z" />
<path fill="#003081" opacity="1.00" d=" M 113.22 266.01 C 113.76 266.14 114.84 266.39 115.38 266.51 C 115.33 267.26 115.24 268.77 115.19 269.52 C 118.07 270.29 120.96 271.01 123.85 271.70 C 123.67 272.26 123.30 273.39 123.12 273.96 C 116.65 272.15 110.18 270.36 103.60 269.01 C 103.69 268.40 103.88 267.17 103.98 266.56 C 106.89 267.38 109.81 268.18 112.73 268.96 C 112.85 268.23 113.09 266.75 113.22 266.01 Z" />
<path fill="#003081" opacity="1.00" d=" M 180.38 267.40 C 181.04 267.33 182.36 267.20 183.02 267.14 C 183.29 269.30 183.58 271.47 183.88 273.63 C 186.67 273.00 189.45 272.36 192.22 271.64 C 192.32 272.25 192.52 273.46 192.61 274.07 C 189.93 274.53 187.27 275.11 184.62 275.72 C 186.80 280.28 190.46 284.25 195.75 284.85 C 195.17 285.88 194.59 286.90 194.02 287.94 C 190.13 286.26 186.67 283.63 184.59 279.87 C 184.43 284.59 181.85 288.57 178.40 291.61 C 177.76 291.19 176.48 290.34 175.84 289.92 C 180.41 286.89 183.12 281.77 182.37 276.22 C 179.63 276.78 176.91 277.43 174.18 277.99 C 174.14 277.42 174.06 276.28 174.02 275.70 C 176.65 275.18 179.27 274.61 181.89 274.06 C 181.43 271.83 180.91 269.61 180.38 267.40 Z" />
<path fill="#003081" opacity="1.00" d=" M 207.00 269.97 C 209.15 269.49 211.65 267.35 213.62 269.38 C 211.97 271.11 210.29 272.80 208.72 274.59 C 211.72 273.77 214.63 272.67 217.48 271.42 C 217.72 272.01 218.19 273.18 218.43 273.76 C 215.68 274.63 212.96 275.58 210.26 276.60 C 210.89 278.35 211.53 280.10 212.14 281.87 C 211.16 282.55 210.18 283.24 209.21 283.93 C 208.61 283.39 208.01 282.85 207.42 282.32 C 209.31 281.01 209.36 279.14 208.53 277.19 C 205.53 278.28 202.55 279.43 199.60 280.66 C 199.37 280.10 198.91 278.97 198.68 278.41 C 201.47 277.44 204.26 276.44 207.03 275.41 C 207.33 274.12 207.64 272.84 207.97 271.56 C 205.44 272.65 202.88 273.63 200.24 274.38 C 200.99 271.24 204.56 271.12 207.00 269.97 Z" />
<path fill="#013a89" opacity="1.00" d=" M 131.36 269.23 C 131.88 269.29 132.94 269.42 133.47 269.48 C 133.26 271.07 133.04 272.67 132.83 274.28 C 134.25 274.39 135.68 274.51 137.11 274.62 C 136.54 280.34 135.99 286.07 135.63 291.81 C 135.14 291.78 134.16 291.73 133.67 291.70 C 133.70 291.14 133.75 290.03 133.78 289.47 C 131.81 289.33 129.84 289.21 127.87 289.08 C 127.09 290.25 126.32 291.43 125.47 292.56 C 125.19 286.24 126.49 279.98 126.65 273.67 C 128.12 273.76 129.59 273.84 131.06 273.93 C 131.16 272.36 131.25 270.79 131.36 269.23 M 128.45 276.03 C 128.33 277.47 128.21 278.91 128.10 280.35 C 128.88 280.42 129.67 280.49 130.45 280.56 C 130.56 279.06 130.66 277.55 130.77 276.05 C 130.19 276.05 129.03 276.04 128.45 276.03 M 132.65 276.33 C 132.54 277.79 132.43 279.25 132.32 280.72 C 132.92 280.74 134.10 280.77 134.69 280.79 C 134.76 279.27 134.84 277.76 134.91 276.24 C 134.34 276.26 133.22 276.31 132.65 276.33 M 127.91 282.24 C 127.76 283.74 127.61 285.24 127.47 286.74 C 128.01 286.92 129.11 287.28 129.66 287.46 C 129.90 285.80 130.13 284.13 130.36 282.47 C 129.75 282.41 128.52 282.30 127.91 282.24 M 131.50 287.44 C 132.39 287.47 133.27 287.51 134.16 287.54 C 134.22 285.73 134.27 283.91 134.29 282.10 C 131.72 282.68 131.98 285.40 131.50 287.44 Z" />
<path fill="#003081" opacity="1.00" d=" M 157.51 270.33 C 158.16 270.35 159.46 270.39 160.11 270.41 C 160.11 271.29 160.11 273.06 160.12 273.95 C 162.43 273.83 164.74 273.71 167.05 273.59 C 167.18 278.06 167.57 282.52 167.64 286.99 C 166.75 286.46 165.87 285.92 164.99 285.39 C 163.65 285.47 162.32 285.56 161.00 285.66 C 161.12 287.36 161.25 289.07 161.39 290.78 C 163.64 290.63 165.89 290.45 168.14 290.21 C 168.24 289.37 168.46 287.70 168.57 286.86 C 169.52 287.53 170.48 288.20 171.44 288.87 C 170.69 290.05 169.95 291.23 169.21 292.41 C 165.99 292.72 162.76 292.87 159.53 292.81 C 159.16 290.36 158.83 287.90 158.49 285.45 C 156.26 285.89 154.09 286.58 152.50 288.31 C 151.52 283.81 151.54 279.20 151.19 274.64 C 153.43 274.54 155.66 274.42 157.90 274.29 C 157.80 273.30 157.61 271.32 157.51 270.33 M 153.35 276.42 C 153.43 277.40 153.50 278.38 153.58 279.36 C 155.14 279.26 156.71 279.16 158.28 279.07 C 158.26 278.35 158.22 276.91 158.20 276.20 C 156.58 276.26 154.97 276.34 153.35 276.42 M 160.30 275.91 C 160.31 276.62 160.32 278.02 160.32 278.73 C 161.85 278.69 163.38 278.64 164.92 278.60 C 164.92 277.86 164.94 276.36 164.94 275.61 C 163.39 275.70 161.85 275.80 160.30 275.91 M 160.55 280.53 C 160.60 281.35 160.70 282.99 160.75 283.80 C 162.46 283.66 164.18 283.52 165.89 283.37 C 166.07 279.85 162.92 280.52 160.55 280.53 M 153.69 281.22 C 153.74 281.98 153.83 283.50 153.87 284.27 C 155.41 284.20 156.95 284.13 158.50 284.06 C 158.49 283.31 158.48 281.80 158.48 281.04 C 156.88 281.10 155.28 281.16 153.69 281.22 Z" />
<path fill="#003081" opacity="1.00" d=" M 106.12 271.42 C 110.62 272.67 115.15 273.86 119.71 274.91 C 119.02 277.36 118.35 279.82 117.67 282.27 C 115.83 281.77 113.98 281.29 112.13 280.83 C 111.05 284.05 111.45 289.60 106.59 289.07 C 106.46 288.51 106.21 287.40 106.08 286.85 C 109.56 286.76 109.25 282.74 110.20 280.33 C 108.22 279.77 106.23 279.24 104.24 278.72 C 104.92 276.30 105.55 273.87 106.12 271.42 M 107.70 274.12 C 107.46 274.94 106.98 276.57 106.74 277.39 C 109.93 278.26 113.13 279.08 116.33 279.92 C 116.58 279.11 117.08 277.48 117.33 276.66 C 114.12 275.80 110.91 274.96 107.70 274.12 Z" />
<path fill="#003081" opacity="1.00" d=" M 138.87 272.36 C 141.40 272.55 143.93 272.73 146.47 272.89 C 145.48 275.48 144.48 278.08 143.49 280.68 C 145.76 284.11 146.63 289.31 142.38 291.62 C 141.86 291.26 140.82 290.54 140.30 290.19 C 139.54 291.90 139.08 293.87 137.34 294.88 C 137.39 287.35 138.73 279.90 138.87 272.36 M 140.88 274.46 C 140.70 276.53 140.53 278.60 140.36 280.67 C 140.83 280.43 141.78 279.94 142.25 279.70 C 142.61 277.97 143.05 276.26 143.48 274.56 C 142.61 274.52 141.74 274.49 140.88 274.46 M 140.11 283.17 C 140.08 285.86 139.25 289.39 143.39 288.68 C 143.20 286.18 142.74 283.72 142.16 281.29 C 141.47 281.91 140.79 282.54 140.11 283.17 Z" />
<path fill="#003081" opacity="1.00" d=" M 99.74 283.82 C 102.30 282.57 104.82 281.17 107.65 280.62 C 106.17 283.22 103.36 284.44 100.89 285.86 C 100.61 285.35 100.03 284.33 99.74 283.82 Z" />
<path fill="#003081" opacity="1.00" d=" M 113.21 283.86 C 113.73 283.69 114.78 283.36 115.30 283.20 C 116.47 284.88 117.66 286.56 118.87 288.22 C 118.37 288.62 117.38 289.42 116.88 289.83 C 115.68 287.82 114.45 285.83 113.21 283.86 Z" />
</svg>
