<?xml version="1.0" encoding="UTF-8" standalone="no"?>
<svg
   xmlns:dc="http://purl.org/dc/elements/1.1/"
   xmlns:cc="http://creativecommons.org/ns#"
   xmlns:rdf="http://www.w3.org/1999/02/22-rdf-syntax-ns#"
   xmlns:svg="http://www.w3.org/2000/svg"
   xmlns="http://www.w3.org/2000/svg"
   xmlns:sodipodi="http://sodipodi.sourceforge.net/DTD/sodipodi-0.dtd"
   xmlns:inkscape="http://www.inkscape.org/namespaces/inkscape"
   version="1.1"
   id="svg24"
   sodipodi:docname="bupt.svg"
   inkscape:version="0.92.5 (2060ec1f9f, 2020-04-08)">
  <metadata
     id="metadata30">
    <rdf:RDF>
      <cc:Work
         rdf:about="">
        <dc:format>image/svg+xml</dc:format>
        <dc:type
           rdf:resource="http://purl.org/dc/dcmitype/StillImage" />
      </cc:Work>
    </rdf:RDF>
  </metadata>
  <defs
     id="defs28" />
  <sodipodi:namedview
     pagecolor="#ffffff"
     bordercolor="#666666"
     borderopacity="1"
     objecttolerance="10"
     gridtolerance="10"
     guidetolerance="10"
     inkscape:pageopacity="0"
     inkscape:pageshadow="2"
     inkscape:window-width="1920"
     inkscape:window-height="1080"
     id="namedview26"
     showgrid="false"
     inkscape:zoom="2.36"
     inkscape:cx="50"
     inkscape:cy="50"
     inkscape:window-x="0"
     inkscape:window-y="0"
     inkscape:window-maximized="0"
     inkscape:current-layer="svg24" />
  <path
     d="m 10.282881,104.10728 c 6.42,-4.509995 12.98,-8.348805 21.04,-9.268805 11.16,-1.47 21.21,4.7 31.95,6.449995 10.31,2.26 21.5,-0.49 29.66,-7.169995 3.69,-3.09 6.08,-7.71 6.28,-12.54 0.819999,-11.14 -4.13,-21.75 -10.08,-30.84 -10.27,-13.33 -25.62,-21.93 -41.71,-26.2 4.62,-5.21 10.65,-8.88 16.59,-12.39 66.513859,-32.571111 143.134089,6.291358 157.739999,70.91 -5.8,1.39 -11.65,2.54 -17.46,3.87 -7.55,-18.83 -15.8,-39.22 -33.16,-51.16 -1.63,1.52 -3.16,3.14 -4.61,4.83 6.29,6.94 13.98,12.77 18.79,20.94 3.12,5.25 6.44,10.53 7.83,16.56 -4.13,2.02 -8.3,3.97 -12.46,5.94 -5.64,-11.63 -12.84,-22.74 -23.28,-30.61 -1.26,1.29 -2.51,2.59 -3.72,3.92 9.91,7.4 15.54,18.52 21.06,29.24 -3.48,1.8 -7.09,3.35 -10.68,4.94 -5.08,-9.08 -9.37,-20.12 -19.36,-24.85 5.97,14.85 13.69,28.96 19.99,43.689995 -54.91,0.05 -109.809999,-0.01 -164.71999864,0.03"
     id="path2"
     inkscape:connector-curvature="0"
     style="opacity:1;fill:#1877f2"
     sodipodi:nodetypes="cccccccccccccccccccccc" />
  <path
     d="m 205.51288,97.128475 c 6.14,-0.41 12.27,-1.09 18.42,-1.4 0.24,13.609995 -1.66,27.249995 -5.18,40.389995 -6.15,16.89 -15.33,32.91 -28.01,45.75 -16.51,16.77 -39.38,26.1 -62.57,28.49 -29.579999,4 -60.359999,-6 -82.629999,-25.69 4.5,-4.49 8.91,-9.08 13.38,-13.61 25.1,21.35 63.489999,28.81 93.259999,13.03 -1.78,-3.84 -3.51,-7.71 -5.26,-11.57 2.79,-1.45 5.6,-2.9 8.54,-4.02 1.87,4.13 3.65,8.35 6.36,12.02 6.33,-4.41 12.23,-9.43 17.89,-14.66 18.2,-17.68 26.79,-43.67 25.8,-68.729995 z"
     id="path12"
     inkscape:connector-curvature="0"
     style="opacity:1;fill:#1877f2"
     sodipodi:nodetypes="ccccccccccccc" />
  <path
     d="m 126.62288,132.03847 c 2.73,-1.34 5.49,-2.63 8.23,-3.94 1.28,2.63 2.54,5.28 3.81,7.93 -2.76,1.31 -5.53,2.61 -8.29,3.92 -1.23,-2.65 -2.48,-5.29 -3.75,-7.91 z"
     id="path18"
     inkscape:connector-curvature="0"
     style="opacity:1;fill:#1877f2"
     sodipodi:nodetypes="ccccc" />
  <path
     d="m 132.97288,144.64847 c 2.76,-1.31 5.53,-2.61 8.32,-3.87 1.21,2.66 2.44,5.31 3.72,7.94 -2.75,1.3 -5.5,2.59 -8.28,3.83 -1.27,-2.63 -2.51,-5.27 -3.76,-7.9 z"
     id="path20"
     inkscape:connector-curvature="0"
     style="opacity:1;fill:#1877f2"
     sodipodi:nodetypes="ccccc" />
  <path
     d="m 139.17288,156.90847 c 2.75,-1.32 5.52,-2.61 8.27,-3.92 1.24,2.65 2.48,5.3 3.75,7.94 -2.75,1.32 -5.51,2.6 -8.27,3.89 -1.26,-2.64 -2.51,-5.27 -3.75,-7.91 z"
     id="path22"
     inkscape:connector-curvature="0"
     style="opacity:1;fill:#1877f2"
     sodipodi:nodetypes="ccccc" />
</svg>
