<svg width="300" height="300" xmlns="http://www.w3.org/2000/svg">

 <g>
  <title>background</title>
  <rect fill="none" id="canvas_background" height="302" width="302" y="-1" x="-1"/>
 </g>
 <g>
  <title>Layer 1</title>
  <path id="svg_2" d="m140.93,0l18.32,0c10.77,1.09 21.55,2.57 31.97,5.62c31.33,8.77 59.34,28.35 78.87,54.3c17.58,23.02 27.63,51.27 29.91,80.06l0,20.24c-1.21,11.28 -2.89,22.55 -6.28,33.4c-9.07,30.39 -28.33,57.46 -53.62,76.5c-23.02,17.58 -51.29,27.6 -80.08,29.88l-19.32,0c-40.97,-2.58 -80.4,-22.55 -106.39,-54.37c-20.21,-24.01 -31.84,-54.56 -34.31,-85.74l0,-18.23c1.88,-29.37 12.07,-58.25 29.95,-81.71c19.51,-25.96 47.51,-45.52 78.82,-54.3c10.47,-3.08 21.32,-4.57 32.16,-5.65m-4.52,2.59c-33.88,2.99 -66.52,18.19 -90.54,42.28c-25.74,25.18 -41.65,60.13 -43.57,96.1c-1.41,22.15 2.25,44.61 10.66,65.15c11.5,28.28 32.13,52.67 57.87,69.02c30.86,19.75 69.23,27.16 105.25,20.64c30.07,-5.23 58.32,-20.22 79.58,-42.11c24.91,-25.04 40.22,-59.37 42.1,-94.64c2.9,-41.98 -13.42,-84.84 -43.62,-114.16c-30.37,-30.71 -74.8,-46.46 -117.73,-42.28z" fill="#013a89"/>
  <path id="svg_4" d="m141.8,5.76c3.02,-0.05 6.05,-0.11 9.07,-0.16c-0.02,0.89 -0.07,2.67 -0.09,3.56c-1.19,0.02 -2.38,0.04 -3.57,0.06c0.14,7.43 0.62,14.86 0.37,22.3c3.44,-0.09 6.89,-0.03 10.33,0.26c-2.07,-2.13 -3.01,-4.89 -3.43,-7.77c0.43,-0.22 1.29,-0.68 1.72,-0.9c0.47,1.65 0.95,3.29 1.46,4.93c4.67,0.95 5.45,-5.79 1.87,-7.6c-4.8,-2.92 -5.19,-11.37 -0.34,-14.25c3.92,-1.3 4.77,3.49 5.53,6.15c-0.48,0.14 -1.44,0.42 -1.92,0.56c-0.45,-1.36 -0.91,-2.72 -1.36,-4.07c-1.34,0.48 -3.26,0.45 -3.52,2.23c-1.73,4.2 3.18,6.17 5.08,9.07c1.53,4.32 0.29,9.52 -3.7,12.06c6.06,-0.09 12.04,1.06 17.92,2.45c3.62,-8.33 7.18,-16.95 12.39,-24.41c0.04,9.1 -0.23,18.4 -2.11,27.32c3.57,0.74 6.83,3.45 10.47,3.16c0.48,-6.31 1.06,-12.6 1.52,-18.91c-2.87,5.24 -3.78,11.75 -7.46,16.36c-0.22,-0.16 -0.67,-0.48 -0.89,-0.63c3.19,-7.99 5.99,-16.21 10.04,-23.81c1.37,6.46 -0.43,13.05 -0.57,19.56c2.85,-5.48 4.15,-11.69 7.69,-16.81c0.59,3.91 -1.88,7.28 -3.08,10.81c-2.08,4.61 -3.5,9.59 -5.93,13.98c-0.08,0.23 -0.23,0.7 -0.31,0.94c9.03,3.83 17.56,8.99 25.03,15.36c5.71,-5.16 9.99,-11.63 14.96,-17.47c-0.7,-0.51 -2.1,-1.54 -2.8,-2.05c0.81,-0.89 1.62,-1.78 2.44,-2.67c2.31,1.91 4.62,3.82 6.96,5.7c-0.81,0.92 -1.62,1.83 -2.42,2.75c-0.68,-0.62 -2.03,-1.84 -2.71,-2.46c-4.29,5.37 -8.89,10.5 -12.85,16.12c-0.62,0.23 -1.86,0.69 -2.48,0.93c16.82,13.63 29.78,32.06 36.88,52.53c14.64,41.16 4.39,90.33 -26.75,121.25c5.77,3.4 11.96,6.01 17.97,8.94c-3.86,-4.98 -10.64,-7.86 -12.77,-13.95c7.08,5.5 13.58,11.79 19.82,18.23c-6.68,-0.34 -12.18,-5.12 -18.32,-7.41c3.86,4.88 10.45,7.72 12.65,13.71c-7.46,-5.34 -13.5,-12.41 -20.6,-18.21c-13.12,13.7 -29.9,23.75 -47.93,29.52c-38.85,12.58 -84.12,3.48 -114.37,-24.14c-5.5,6.71 -11.66,12.85 -17.63,19.14c-1.34,-1.84 -4.4,-3.29 -3.6,-5.98c0.92,-3.33 3.84,-5.46 6.62,-7.21c1.85,-4.8 6.39,-11.02 12.27,-8.15c-2.07,-1.87 -4.08,-3.8 -6.02,-5.79c-6.05,6.18 -12.81,11.6 -19.18,17.42c-1.61,-1.79 -3.23,-3.58 -4.85,-5.36c0.9,-0.77 1.8,-1.54 2.71,-2.3c1.16,1.31 2.32,2.61 3.49,3.92c1.72,-1.53 3.45,-3.04 5.18,-4.55c-1.08,-1.16 -2.16,-2.31 -3.25,-3.46c0.87,-0.84 1.73,-1.67 2.6,-2.5c1.04,1.23 2.07,2.46 3.11,3.7c2.02,-1.78 4.05,-3.57 6.08,-5.35c-1.27,-1.39 -2.53,-2.78 -3.77,-4.18c1.29,-0.69 2.59,-1.37 3.91,-2.02c-1.4,-1.62 -2.76,-3.25 -4.09,-4.91c-3.72,4.02 -8.47,6.84 -12.72,10.25c-2.9,2.1 -5.53,4.85 -9.16,5.63c6.01,-6.71 14.04,-11.42 21.27,-16.76c-1.68,-1.24 -2.53,-5.74 -4.4,-5.13c-1.57,2.31 -3.52,4.37 -6.03,5.68c0.87,-2.02 1.91,-3.94 2.86,-5.92c-8.07,0.79 -13.62,7.96 -20.94,10.92c0.62,-3.87 5.25,-4.69 7.89,-6.9c4.63,-2.44 9.06,-7.51 14.7,-6.15c0.07,-2.92 -2.73,-5.07 -3.73,-7.76c-7.04,4.39 -14.51,8.11 -21.96,11.74c-0.56,-0.12 -1.66,-0.36 -2.22,-0.47c7.77,-4.4 15.55,-8.95 23.85,-12.27c-0.89,-1.62 -1.87,-3.19 -2.71,-4.83c-7.91,4.12 -16.23,7.69 -24.77,10.25c3.45,-5.51 9.57,-8.49 13.93,-13.19c-5.75,1.78 -10.91,5.49 -17,6.07c4.62,-4.13 11.02,-5.23 16.46,-7.94c2.66,-1.58 6.76,-1.51 7.77,-4.9c-5.35,-14.26 -7.2,-29.61 -6.83,-44.77c-5.96,2.83 -12.65,3.76 -18.78,6.21c5.87,0.22 11.75,0.12 17.63,0.19l-0.01,1.94c-8.69,-0.24 -17.45,0.21 -26.07,-1.01c5.61,-3.41 12.3,-4.1 18.33,-6.48c-5.7,-0.38 -11.42,-0.2 -17.13,-0.32l0.09,-1.86c8.79,0.48 17.7,-0.63 26.38,1.09c-0.5,-8.89 1.78,-17.97 3.87,-26.65l-1.98,1.16c-7.82,-2.35 -15.64,-4.71 -23.47,-7.05c0.73,-2.32 1.45,-4.64 2.21,-6.94c0.82,0.3 2.45,0.91 3.27,1.22c-0.54,1.63 -1.08,3.25 -1.61,4.88c2.19,0.66 4.39,1.32 6.59,1.97c0.5,-1.56 1,-3.12 1.52,-4.67c0.82,0.32 2.46,0.94 3.27,1.25c-0.51,1.47 -1.02,2.94 -1.52,4.41c2.58,0.78 5.15,1.57 7.73,2.34c0.55,-1.75 1.1,-3.49 1.67,-5.22c0.75,0.3 2.24,0.9 2.99,1.19c-0.06,1.14 -0.18,3.4 -0.24,4.53c0.83,-2.52 1.54,-5.09 2.37,-7.61c-8.13,-2.89 -16.02,-6.43 -24.06,-9.55c0.76,-1.86 1.54,-3.72 2.32,-5.57c2.6,-0.21 5.39,-0.36 7.64,1.19c5.1,3.51 11.43,4.12 17.06,6.46c0.66,-2.05 2.59,-3.78 2.29,-6.06c-0.41,0.32 -1.25,0.97 -1.67,1.29c-2,-0.84 -6.65,0.35 -6.52,-2.68c1.79,-0.16 3.69,0.35 5.39,-0.35c2.01,-2.64 -1.66,-4.87 -4.03,-5.02c-3.01,0.7 -5.81,3.35 -9.04,2.01c-3.32,-1.04 -7.97,-3.99 -6.34,-8.08c2.23,-2.75 6.04,-1.14 8.63,0.08c-1.95,0.42 -3.94,0.63 -5.92,0.84c-0.95,3.13 1.93,4.65 4.38,5.59c2.05,-0.98 4.05,-2.11 6.24,-2.74c4.44,-0.18 8.37,2.91 10.22,6.82c1.94,-0.57 2.59,-4.93 4.44,-6.73c-8.14,-3.76 -15.64,-9.03 -22.87,-14.33c2.71,-0.51 4.8,1.37 6.92,2.69c5.44,3.66 11.18,6.88 16.44,10.79c1.68,-2.34 3.08,-4.91 5.06,-7.03c-6.69,-3.53 -12.17,-8.9 -18.33,-13.24c-0.69,0.92 -1.37,1.85 -2.06,2.77c-0.92,-0.77 -1.85,-1.53 -2.77,-2.3c1.87,-2.34 3.69,-4.72 5.55,-7.07c0.69,0.54 2.07,1.62 2.77,2.15c-0.8,0.96 -1.59,1.91 -2.39,2.87c5.94,4.64 12.03,9.09 17.91,13.81c2.18,-2.97 4.59,-5.78 7.12,-8.46c-3.58,-2.57 -6.33,-6.13 -10.03,-8.52c-3.83,-2.1 -7.88,-3.75 -11.83,-5.6c0.2,-0.46 0.61,-1.37 0.81,-1.83c3.27,1.48 6.5,3.02 9.78,4.49c-1.74,-3.15 -3.59,-6.24 -5.35,-9.38c0.51,-0.14 1.53,-0.44 2.04,-0.58c1.81,3.31 3.64,6.61 5.58,9.84c2.5,4.27 7.02,6.77 9.83,10.8c4.99,-6.1 11.74,-10.47 17.26,-15.91l0.25,-0.33l0.16,0.71c2.4,-1.68 4.83,-3.29 7.33,-4.81c-4.81,-7.16 -8.65,-14.91 -12.97,-22.37c2.07,-1.13 4.12,-2.28 6.17,-3.45c0.57,1.02 1.13,2.04 1.69,3.07c-1.51,0.86 -3.03,1.72 -4.55,2.58c1.11,1.98 2.25,3.95 3.38,5.92c1.44,-0.76 2.87,-1.53 4.31,-2.29c0.54,1.02 1.09,2.05 1.63,3.08c-1.41,0.75 -2.82,1.5 -4.22,2.24c1.94,3.49 4.03,6.92 5.57,10.61c5.91,-3.49 12.09,-6.57 18.59,-8.79c-3.67,-7.83 -5.75,-16.28 -8.81,-24.34c2.46,-0.49 5.7,-2.71 7.38,0.27c2.8,3.75 5.1,11.14 -0.8,13.2c1.22,3.45 2.41,6.91 3.39,10.43c4.29,-1.68 8.7,-3.14 13.29,-3.64c-5.64,-3.2 -7.88,-9.83 -8.48,-15.93c-0.21,-3.25 -0.34,-7.11 2.28,-9.52c3.3,-0.9 5.38,2.67 6.61,5.14c2.74,6.17 4.71,14.3 -0.02,20.02c3.71,-1.07 7.52,-1.68 11.34,-2.15c-2.73,-1.98 -5.1,-5.07 -3.99,-8.63c1.03,1.52 2,3.08 2.95,4.65c1.04,0 2.09,-0.02 3.13,-0.03c0.04,-1.94 0.66,-4.09 -0.36,-5.89c-2.27,-1.97 -5.9,-2.76 -6.75,-6.03c-1.17,-3.29 -1.43,-8.34 2.37,-10c3.67,-0.37 4.79,4.02 5.6,6.72c-1.88,-1.08 -3.32,-2.73 -4.83,-4.24c-1.03,1.48 -2.74,2.92 -2,4.94c0.82,3.64 5.62,3.87 7.17,7.03c1.71,3.78 1.4,8.48 -1.67,11.49c3.33,-0.62 6.7,-0.97 10.09,-1.04c-1.06,-7.34 -0.66,-14.79 -0.94,-22.19c-1.18,-0.01 -2.37,-0.02 -3.55,-0.03c-0.01,-0.88 -0.04,-2.64 -0.05,-3.52m-23.52,20.96c0.89,1.78 2.11,4.13 4.43,4.01c3.14,-6.01 0.85,-14.82 -4.81,-18.64c-2.68,4.51 -1.6,10.07 0.38,14.63m-15.75,-8.95c0.91,2.3 1.78,4.61 2.76,6.89c0.74,-0.49 2.21,-1.46 2.95,-1.95c-0.62,-2.18 -1.45,-4.29 -2.56,-6.27c-0.79,0.33 -2.36,1 -3.15,1.33m80.83,7.6c1.22,0.36 2.45,0.72 3.67,1.07c0.25,-3.22 0.52,-6.43 0.65,-9.66c-1.5,2.83 -2.87,5.73 -4.32,8.59m-5.13,9.68c2.92,0.51 5.76,1.41 8.68,1.97c-1.17,-2.28 -0.09,-4.91 -0.17,-7.36c-1.55,-0.44 -3.09,-0.88 -4.63,-1.32c-1.2,2.29 -2.46,4.55 -3.88,6.71m-60.95,2.18c-32.92,9.35 -60.96,34.04 -74.71,65.34c-6.83,15.39 -10.22,32.28 -10,49.11c3.51,0.19 7.37,0.43 10.34,-1.81c6.42,-4.51 12.98,-9.62 21.04,-10.54c11.16,-1.47 21.21,4.7 31.95,6.45c10.31,2.26 21.5,-0.49 29.66,-7.17c3.69,-3.09 6.08,-7.71 6.28,-12.54c0.82,-11.14 -4.13,-21.75 -10.08,-30.84c-10.27,-13.33 -25.62,-21.93 -41.71,-26.2c4.62,-5.21 10.65,-8.88 16.59,-12.39c28.79,-16.48 65.3,-17.82 95.69,-4.96c31.31,13.41 55.18,42.48 62.05,75.87c-5.8,1.39 -11.65,2.54 -17.46,3.87c-7.55,-18.83 -15.8,-39.22 -33.16,-51.16c-1.63,1.52 -3.16,3.14 -4.61,4.83c6.29,6.94 13.98,12.77 18.79,20.94c3.12,5.25 6.44,10.53 7.83,16.56c-4.13,2.02 -8.3,3.97 -12.46,5.94c-5.64,-11.63 -12.84,-22.74 -23.28,-30.61c-1.26,1.29 -2.51,2.59 -3.72,3.92c9.91,7.4 15.54,18.52 21.06,29.24c-3.48,1.8 -7.09,3.35 -10.68,4.94c-5.08,-9.08 -9.37,-20.12 -19.36,-24.85c5.97,14.85 13.69,28.96 19.99,43.69c-54.91,0.05 -109.81,-0.01 -164.72,0.03c0.74,14.07 3.75,28.07 9.3,41.04c12.38,29.35 37.27,53.15 67.15,64.18c23.44,8.76 49.67,9.74 73.69,2.72c32.47,-9.21 60.21,-33.35 74.16,-64.05c12.63,-27.46 14,-59.81 3.76,-88.25c-10.88,-30.8 -35.31,-56.46 -65.48,-68.95c-24.48,-10.24 -52.44,-11.86 -77.9,-4.35m-97.52,58.8c-0.55,1.05 -1.1,2.1 -1.64,3.16c2.07,0.87 4.14,1.75 6.21,2.63c0.35,-0.83 1.06,-2.49 1.41,-3.32c-1.79,-1.28 -3.81,-2.14 -5.98,-2.47m9.66,4.23c-0.76,0.84 -1.48,1.72 -2.16,2.63c3.68,2.29 9.36,2.25 11.52,6.2c0.71,-1.88 1.45,-3.76 2.22,-5.62c-3.9,-0.93 -7.59,-2.69 -11.58,-3.21m8.06,93.2c-3.58,4.31 -8.99,7.47 -13.03,11.62c5.32,-1.86 10.33,-4.64 15.71,-6.26c1.8,-1.98 -0.42,-4.27 -0.63,-6.44c-0.51,0.27 -1.54,0.81 -2.05,1.08m21.9,50.3c0.92,1 1.85,2 2.78,3c1.87,-1.93 3.72,-3.89 5.58,-5.83c-1.02,-0.9 -2.05,-1.79 -3.08,-2.67c-2.2,1.37 -3.95,3.28 -5.28,5.5m-4.48,10.5c1.85,-1.58 3.45,-3.42 5.1,-5.19c-1.05,-0.74 -2.09,-1.47 -3.14,-2.2c-2.33,1.84 -5.89,5.16 -1.96,7.39z" fill="#013a89"/>
  <path id="svg_5" d="m202.36,42.71c3.79,-7.51 7.83,-14.88 11.75,-22.33c2.44,1.53 5.98,3.19 5.54,6.67c-0.64,6.16 -4.04,11.95 -8.26,16.37c-2.6,2.74 -6.3,0.52 -9.03,-0.71m12.03,-18.82c-3.18,5.7 -6.27,11.45 -9.09,17.33c2.51,0.47 5.63,0.9 7.14,-1.74c3.04,-4.33 7.96,-11.59 1.95,-15.59z" fill="#003081"/>
  <path id="svg_6" d="m66.54,39.62c-0.93,-2.45 -1.94,-5.92 0.49,-7.86c4.06,-0.69 7.21,2.83 9.69,5.55c3.48,4.39 7.27,10.18 4.8,15.95l-0.16,-0.71l-0.25,0.33l-0.58,0.76c-6.76,-1.82 -11.39,-7.83 -13.99,-14.02m11.93,11.19c0.99,-1.29 1.89,-2.84 1.24,-4.52c-1.65,-5.39 -5.52,-10.64 -11.19,-12.17c-1.5,7.12 4.22,13.38 9.95,16.69z" fill="#003081"/>
  <path id="svg_7" d="m249.25,45.12c2.25,0.88 3.66,3.12 5.44,4.69c-0.85,0.77 -1.69,1.54 -2.53,2.31c-1.33,-1.01 -2.35,-2.75 -4.07,-3.07c-1.66,1.3 -3.07,2.89 -4.54,4.39c1.18,1.13 2.36,2.26 3.54,3.38c-0.84,0.82 -1.69,1.63 -2.53,2.44c-1.16,-1.12 -2.31,-2.23 -3.46,-3.35c-1.83,1.88 -3.67,3.75 -5.51,5.61c2.12,1.9 4.59,3.95 1.72,6.56c-1.85,-1.75 -3.67,-3.52 -5.49,-5.29c5.77,-5.93 11.41,-12.01 17.43,-17.67z" fill="#013a89"/>
  <path id="svg_8" d="m257.25,55.26c0.7,-0.19 2.1,-0.57 2.79,-0.76c-4.98,5.61 -11.3,9.83 -16.77,14.95c1.23,1.47 2.46,2.95 3.68,4.43c-0.92,0.66 -1.83,1.32 -2.74,1.98c-1.57,-1.89 -3.15,-3.76 -4.73,-5.64c5.96,-4.94 11.7,-10.17 17.77,-14.96z" fill="#003081"/>
  <path id="svg_9" d="m246.21,78.73c6.88,-4.88 13.76,-9.77 20.69,-14.58c1.36,1.98 2.73,3.94 4.11,5.9c-0.99,0.65 -1.97,1.3 -2.95,1.94c-0.98,-1.43 -1.97,-2.87 -2.97,-4.29c-1.88,1.32 -3.75,2.65 -5.61,3.99c0.96,1.31 1.92,2.63 2.88,3.95c-1.03,0.62 -2.05,1.25 -3.08,1.88c-0.85,-1.3 -1.7,-2.6 -2.55,-3.9c-2.2,1.53 -4.39,3.07 -6.59,4.61c1.03,1.51 2.07,3.01 3.1,4.53c-0.97,0.58 -1.94,1.17 -2.91,1.75c-1.36,-1.94 -2.73,-3.87 -4.12,-5.78z" fill="#013a89"/>
  <path id="svg_10" d="m258.18,84.19c4.36,-3.22 9.3,-6.42 14.88,-6.64c2.21,-0.2 3.36,2.04 4.74,3.34c-1.38,2.43 -3.18,4.59 -5.56,6.09c0.02,-2.11 1.23,-3.85 2.28,-5.58c-3.18,-3.27 -7.62,-0.43 -10.85,1.3c-2.69,1.71 -6.5,3.66 -6.21,7.4c2,1.16 4.51,0.94 6.71,1.54c-2.68,1.29 -7.01,3.58 -9.23,0.38c-1.9,-2.96 1.04,-6.06 3.24,-7.83z" fill="#003081"/>
  <path id="svg_11" d="m276.27,91.27c2.43,-0.21 5.32,-0.5 7.22,1.37c0.89,3 -1.83,5.31 -3.9,6.97c-5.06,3.66 -11.65,6.38 -17.93,4.74c-2.34,-1.13 -1.43,-4.16 0.04,-5.61c3.74,-4.12 9.13,-6.56 14.57,-7.47m-3.99,2.9c-3.91,1.42 -8.49,3.61 -9.24,8.18c6.87,1.46 14.23,-1.91 18.12,-7.66c-2.63,-1.97 -5.98,-1.63 -8.88,-0.52z" fill="#003081"/>
  <path id="svg_12" d="m263.42,110.6c8.08,-2.41 16.19,-4.71 24.27,-7.12c0.06,0.59 0.19,1.77 0.25,2.36c-5.64,3.01 -11.32,5.96 -16.91,9.09c6.92,-0.06 13.77,-1.42 20.69,-1.23c-0.76,1.18 -1.59,2.42 -3.09,2.66c-6.85,1.92 -13.62,4.19 -20.53,5.9c-0.52,-0.24 -1.57,-0.71 -2.1,-0.95c5.4,-2.12 11.11,-3.23 16.61,-5.05c-6.15,-0.22 -12.2,1.27 -18.34,0.97c4.49,-4.34 10.69,-6.11 15.93,-9.32c-5.55,0.98 -10.85,2.95 -16.27,4.46l-0.51,-1.77z" fill="#003081"/>
  <path id="svg_13" d="m8.07,117.5c8.69,2.68 17.12,6.23 25.42,9.91c-8.95,1.63 -18.24,0.42 -27.28,-0.02c5.56,-3.64 12.98,-0.21 19.27,-1.23c-5.48,-3.46 -13.44,-3.3 -17.41,-8.66z" fill="#013a89"/>
  <path id="svg_14" d="m266.82,126.03c8.44,-2.06 17.15,-2.74 25.69,-4.31c0.06,0.57 0.18,1.7 0.25,2.27c-6.12,2.31 -12.3,4.47 -18.31,7.05c6.36,0.63 12.86,0.09 19.15,1.18c0.36,0.45 1.07,1.36 1.43,1.81c-8.94,0.86 -17.9,4.2 -26.85,3.07c5.63,-2.3 11.83,-2.05 17.67,-3.49c-6.09,-0.76 -12.29,-0.41 -18.34,-1.48c5.19,-3.4 11.39,-4.57 17.03,-7c-5.93,-0.53 -12.19,3.38 -17.72,0.9z" fill="#003081"/>
  <path id="svg_15" d="m5.24,134.79c8.47,0.13 16.89,1.41 25.31,2.21c0.16,0.25 0.49,0.75 0.66,1c-0.17,0.2 -0.5,0.6 -0.67,0.8c-5.85,-0.38 -11.66,-1.26 -17.51,-1.67c-2.69,-0.4 -5.84,-0.03 -7.79,-2.34z" fill="#013a89"/>
  <path id="svg_16" d="m283.6,140.38c4.06,0.33 8.67,-1.47 12.31,0.9c-6.64,1.46 -13.52,0.41 -20.19,1.53c-2.65,0.15 -3.39,4.67 -0.43,4.79c6.97,0.97 14.06,-0.72 21.05,0.27c-4.55,2.82 -10.26,1.16 -15.32,1.89c-3.97,0.09 -10.65,0.62 -11.29,-4.75c2.2,-5.41 9.16,-4.24 13.87,-4.63z" fill="#003081"/>
  <path id="svg_17" d="m238.14,141.62c6.14,-0.41 12.27,-1.09 18.42,-1.4c0.24,13.61 -1.66,27.25 -5.18,40.39c-6.15,16.89 -15.33,32.91 -28.01,45.75c-16.51,16.77 -39.38,26.1 -62.57,28.49c-29.58,4 -60.36,-6 -82.63,-25.69c4.5,-4.49 8.91,-9.08 13.38,-13.61c25.1,21.35 63.49,28.81 93.26,13.03c-1.78,-3.84 -3.51,-7.71 -5.26,-11.57c2.79,-1.45 5.6,-2.9 8.54,-4.02c1.87,4.13 3.65,8.35 6.36,12.02c6.33,-4.41 12.23,-9.43 17.89,-14.66c18.2,-17.68 26.79,-43.67 25.8,-68.73z" fill="#013a89"/>
  <path id="svg_18" d="m270.22,153.16c8.58,0.53 17.18,1 25.74,1.82c-5.11,4.19 -12.44,3.56 -18.4,6.05c6.03,0.9 12.33,-0.04 18.17,2c-8.88,1.7 -18.14,-0.48 -27.12,-0.99c5.64,-3.71 12.82,-3.44 18.99,-5.95c-5.78,-0.5 -11.57,-0.71 -17.35,-1.01l-0.03,-1.92z" fill="#003081"/>
  <path id="svg_19" d="m15.04,157.47c5.74,-0.34 13.36,-2.61 16.93,3.48c-1.68,2.34 -3.82,4.72 -6.92,4.87c-6.57,0.65 -13.17,1.77 -19.78,1.37c6.4,-4.07 15.02,-0.8 21.69,-4.27c0.43,-1.05 0.68,-2.17 0.98,-3.27c-7.56,-2.2 -15.38,0.65 -23.07,0.44c2.36,-3.16 6.78,-1.95 10.17,-2.62z" fill="#013a89"/>
  <path id="svg_21" d="m267.56,167.76c9.06,0.54 18.48,1.45 27.07,4.42c-4.88,1.11 -9.75,-0.81 -14.6,-1.26c-4.18,-0.89 -8.92,-0.41 -12.47,-3.16z" fill="#013a89"/>
  <path id="svg_22" d="m159.25,176.53c2.73,-1.34 5.49,-2.63 8.23,-3.94c1.28,2.63 2.54,5.28 3.81,7.93c-2.76,1.31 -5.53,2.61 -8.29,3.92c-1.23,-2.65 -2.48,-5.29 -3.75,-7.91z" fill="#013a89"/>
  <path id="svg_23" d="m267.43,176.57c6.27,-1.98 12.99,-0.34 18.82,2.25c2.8,1.25 5.96,4.25 4.09,7.55c-1.88,1.78 -4.7,1.12 -7.04,1.35c0.04,-0.41 0.13,-1.25 0.18,-1.67c3.33,0.62 6.21,-3.13 2.55,-5.05c-4.79,-2.22 -12.5,-5.88 -16.63,-0.99c1.3,1.75 2.84,3.31 4.21,5.01c-4.32,-0.18 -9.31,-3.91 -6.18,-8.45z" fill="#003081"/>
  <path id="svg_24" d="m22.06,183.13c4.06,-1.2 8.11,-2.42 12.17,-3.62c0.52,2.7 1.99,6.02 -0.5,8.21c-3.98,3.65 -9.59,4.86 -14.77,5.67c-2.66,0.2 -6.91,0.27 -7.68,-2.97c-0.42,-3.39 3.55,-4.71 5.8,-6.24c0.11,0.41 0.32,1.22 0.42,1.63c-1.54,1.22 -2.86,2.7 -3.67,4.51c5.32,2.43 11.42,0.41 16.21,-2.3c2.3,-1.13 1.74,-3.81 1.63,-5.88c-2.27,0.88 -5.79,0.81 -6,3.99c-0.94,0.25 -1.88,0.51 -2.83,0.76c-0.27,-1.26 -0.53,-2.51 -0.78,-3.76z" fill="#003081"/>
  <path id="svg_25" d="m165.6,189.14c2.76,-1.31 5.53,-2.61 8.32,-3.87c1.21,2.66 2.44,5.31 3.72,7.94c-2.75,1.3 -5.5,2.59 -8.28,3.83c-1.27,-2.63 -2.51,-5.27 -3.76,-7.9z" fill="#013a89"/>
  <path id="svg_26" d="m263.77,185.82c8.05,4.39 16.27,8.78 23.48,14.47c-8.88,-0.34 -17.58,-2.46 -26.38,-3.58c0.1,-0.48 0.3,-1.44 0.4,-1.92c2.23,0.34 4.47,0.67 6.71,0.97c0.56,-1.47 1.13,-2.95 1.7,-4.42c-2.2,-1.57 -5.22,-2.58 -5.91,-5.52m8.73,7c-0.49,1.15 -0.97,2.31 -1.46,3.46c3.18,0.53 6.35,1.13 9.55,1.51c-2.63,-1.76 -5.37,-3.35 -8.09,-4.97z" fill="#003081"/>
  <path id="svg_27" d="m171.8,201.4c2.75,-1.32 5.52,-2.61 8.27,-3.92c1.24,2.65 2.48,5.3 3.75,7.94c-2.75,1.32 -5.51,2.6 -8.27,3.89c-1.26,-2.64 -2.51,-5.27 -3.75,-7.91z" fill="#013a89"/>
  <path id="svg_28" d="m258.03,202.21c6.45,3.25 12.94,6.42 19.35,9.76c0.52,-1.02 1.04,-2.03 1.57,-3.04c1.02,0.53 2.05,1.05 3.07,1.59c-1.32,2.66 -2.66,5.31 -3.98,7.98c-1.05,-0.51 -2.11,-1.02 -3.16,-1.53c0.6,-1.09 1.2,-2.18 1.8,-3.26c-6.47,-3.28 -12.93,-6.57 -19.45,-9.75c0.26,-0.59 0.53,-1.17 0.8,-1.75z" fill="#003081"/>
  <path id="svg_29" d="m257.01,215.98c-1.88,-1.3 -4.65,-2.15 -4.84,-4.83c5.84,2.88 11.14,6.71 16.79,9.94c2.1,1.36 4.82,2.41 5.45,5.12c-6.1,-2.86 -11.54,-6.92 -17.4,-10.23z" fill="#003081"/>
  <path id="svg_30" d="m247.31,220.32c4.51,-1.04 8.82,1.44 12.35,3.99c3.48,2.66 7.06,6.08 7.63,10.67c-0.81,2.52 -3.94,2.72 -6.05,1.89c-5.74,-1.91 -11.08,-5.68 -14.21,-10.92c-0.93,-1.68 -1.7,-4.38 0.28,-5.63m1.97,2.78c-1.15,3.61 3.66,7.02 6.5,9.13c2.35,1.36 6.94,4.34 8.63,0.86c-2.32,-5.74 -8.24,-10.3 -14.45,-10.71l-0.68,0.72z" fill="#003081"/>
  <path id="svg_31" d="m228.48,242.98c-0.75,-1.96 0.71,-3.98 2.57,-4.56c3.12,-0.4 5.48,2.16 7.44,4.19c-2.85,-0.45 -5.87,-2.28 -8.38,0.13c1.15,1.64 2.08,3.59 3.86,4.68c3.06,0.35 6.7,-1.06 9.23,1.32c2.65,2.14 6.01,6.4 3.13,9.62c-2.95,1.65 -6.57,-0.5 -7.7,-3.42c1.71,0.57 3.39,1.23 5.08,1.89c2.73,-2.89 -0.05,-6.16 -3.11,-7.11c-5.29,2.35 -10.63,-1.73 -12.12,-6.74z" fill="#003081"/>
  <path id="svg_32" d="m89.31,258.04c0.63,0.13 1.89,0.41 2.52,0.54c-3.48,6.72 -6.62,13.61 -9.67,20.53c-0.76,-0.33 -1.51,-0.66 -2.26,-0.98c0.61,-1.14 1.22,-2.27 1.82,-3.4c-2.05,-0.12 -4.11,-0.22 -6.17,-0.31c0.06,-0.68 0.18,-2.02 0.24,-2.7c2.25,0.42 4.51,0.79 6.78,1.1c1.03,-2.2 2.05,-4.4 3.05,-6.61c-1.81,-0.81 -3.63,-1.62 -5.42,-2.46c1.7,-2.76 4.33,-0.23 6.46,0.4c0.9,-2.04 1.78,-4.07 2.65,-6.11z" fill="#003081"/>
  <path id="svg_33" d="m207.95,257.99c2.7,1.16 1.51,4.05 1.45,6.26c1.54,-0.62 3.08,-1.24 4.62,-1.85c0.55,1.9 1.09,3.81 1.53,5.76c-1.19,-0.86 -2.37,-1.73 -3.53,-2.62c-4.6,1.7 -9.2,3.36 -13.77,5.13c0.34,0.66 1.02,1.99 1.36,2.66c-0.54,0.2 -1.6,0.6 -2.13,0.8c-0.64,-1.7 -1.26,-3.4 -1.9,-5.1c1.46,-0.41 2.92,-0.81 4.37,-1.22c-1.24,-1.14 -2.49,-2.28 -3.71,-3.44c2.31,-1.46 4.56,0.66 4.83,2.99c2.11,-0.85 4.23,-1.66 6.34,-2.51c0.18,-2.29 0.34,-4.58 0.54,-6.86z" fill="#003081"/>
  <path id="svg_34" d="m93.97,259.78c0.56,0.26 1.69,0.78 2.25,1.04c-1.42,2.69 -2.76,5.42 -4.01,8.19c2.03,-0.38 4.05,-0.82 6.06,-1.31c0.08,0.68 0.24,2.04 0.32,2.71c-2.48,0.2 -4.95,0.45 -7.41,0.78c-1.2,2.56 -2.39,5.12 -3.54,7.7c1.19,0.57 2.38,1.13 3.57,1.71c0.51,-0.65 1.54,-1.94 2.05,-2.59c0.58,0.98 1.16,1.96 1.73,2.96c-2.97,3.4 -6.92,1.03 -9.97,-0.83c2.38,-7.04 6.18,-13.48 8.95,-20.36z" fill="#003081"/>
  <path id="svg_35" d="m203.59,264.97c-0.7,-1.47 -3.49,-3.42 -0.75,-4.35c1.04,1.04 1.99,2.18 2.95,3.3c-0.55,0.26 -1.65,0.79 -2.2,1.05z" fill="#003081"/>
  <path id="svg_36" d="m113.22,266.01c0.54,0.13 1.62,0.38 2.16,0.5c-0.05,0.75 -0.14,2.26 -0.19,3.01c2.88,0.77 5.77,1.49 8.66,2.18c-0.18,0.56 -0.55,1.69 -0.73,2.26c-6.47,-1.81 -12.94,-3.6 -19.52,-4.95c0.09,-0.61 0.28,-1.84 0.38,-2.45c2.91,0.82 5.83,1.62 8.75,2.4c0.12,-0.73 0.36,-2.21 0.49,-2.95z" fill="#003081"/>
  <path id="svg_37" d="m180.38,267.4c0.66,-0.07 1.98,-0.2 2.64,-0.26c0.27,2.16 0.56,4.33 0.86,6.49c2.79,-0.63 5.57,-1.27 8.34,-1.99c0.1,0.61 0.3,1.82 0.39,2.43c-2.68,0.46 -5.34,1.04 -7.99,1.65c2.18,4.56 5.84,8.53 11.13,9.13c-0.58,1.03 -1.16,2.05 -1.73,3.09c-3.89,-1.68 -7.35,-4.31 -9.43,-8.07c-0.16,4.72 -2.74,8.7 -6.19,11.74c-0.64,-0.42 -1.92,-1.27 -2.56,-1.69c4.57,-3.03 7.28,-8.15 6.53,-13.7c-2.74,0.56 -5.46,1.21 -8.19,1.77c-0.04,-0.57 -0.12,-1.71 -0.16,-2.29c2.63,-0.52 5.25,-1.09 7.87,-1.64c-0.46,-2.23 -0.98,-4.45 -1.51,-6.66z" fill="#003081"/>
  <path id="svg_38" d="m207,269.97c2.15,-0.48 4.65,-2.62 6.62,-0.59c-1.65,1.73 -3.33,3.42 -4.9,5.21c3,-0.82 5.91,-1.92 8.76,-3.17c0.24,0.59 0.71,1.76 0.95,2.34c-2.75,0.87 -5.47,1.82 -8.17,2.84c0.63,1.75 1.27,3.5 1.88,5.27c-0.98,0.68 -1.96,1.37 -2.93,2.06c-0.6,-0.54 -1.2,-1.08 -1.79,-1.61c1.89,-1.31 1.94,-3.18 1.11,-5.13c-3,1.09 -5.98,2.24 -8.93,3.47c-0.23,-0.56 -0.69,-1.69 -0.92,-2.25c2.79,-0.97 5.58,-1.97 8.35,-3c0.3,-1.29 0.61,-2.57 0.94,-3.85c-2.53,1.09 -5.09,2.07 -7.73,2.82c0.75,-3.14 4.32,-3.26 6.76,-4.41z" fill="#003081"/>
  <path id="svg_39" d="m131.36,269.23c0.52,0.06 1.58,0.19 2.11,0.25c-0.21,1.59 -0.43,3.19 -0.64,4.8c1.42,0.11 2.85,0.23 4.28,0.34c-0.57,5.72 -1.12,11.45 -1.48,17.19c-0.49,-0.03 -1.47,-0.08 -1.96,-0.11c0.03,-0.56 0.08,-1.67 0.11,-2.23c-1.97,-0.14 -3.94,-0.26 -5.91,-0.39c-0.78,1.17 -1.55,2.35 -2.4,3.48c-0.28,-6.32 1.02,-12.58 1.18,-18.89c1.47,0.09 2.94,0.17 4.41,0.26c0.1,-1.57 0.19,-3.14 0.3,-4.7m-2.91,6.8c-0.12,1.44 -0.24,2.88 -0.35,4.32c0.78,0.07 1.57,0.14 2.35,0.21c0.11,-1.5 0.21,-3.01 0.32,-4.51c-0.58,0 -1.74,-0.01 -2.32,-0.02m4.2,0.3c-0.11,1.46 -0.22,2.92 -0.33,4.39c0.6,0.02 1.78,0.05 2.37,0.07c0.07,-1.52 0.15,-3.03 0.22,-4.55c-0.57,0.02 -1.69,0.07 -2.26,0.09m-4.74,5.91c-0.15,1.5 -0.3,3 -0.44,4.5c0.54,0.18 1.64,0.54 2.19,0.72c0.24,-1.66 0.47,-3.33 0.7,-4.99c-0.61,-0.06 -1.84,-0.17 -2.45,-0.23m3.59,5.2c0.89,0.03 1.77,0.07 2.66,0.1c0.06,-1.81 0.11,-3.63 0.13,-5.44c-2.57,0.58 -2.31,3.3 -2.79,5.34z" fill="#013a89"/>
  <path id="svg_40" d="m157.51,270.33c0.65,0.02 1.95,0.06 2.6,0.08c0,0.88 0,2.65 0.01,3.54c2.31,-0.12 4.62,-0.24 6.93,-0.36c0.13,4.47 0.52,8.93 0.59,13.4c-0.89,-0.53 -1.77,-1.07 -2.65,-1.6c-1.34,0.08 -2.67,0.17 -3.99,0.27c0.12,1.7 0.25,3.41 0.39,5.12c2.25,-0.15 4.5,-0.33 6.75,-0.57c0.1,-0.84 0.32,-2.51 0.43,-3.35c0.95,0.67 1.91,1.34 2.87,2.01c-0.75,1.18 -1.49,2.36 -2.23,3.54c-3.22,0.31 -6.45,0.46 -9.68,0.4c-0.37,-2.45 -0.7,-4.91 -1.04,-7.36c-2.23,0.44 -4.4,1.13 -5.99,2.86c-0.98,-4.5 -0.96,-9.11 -1.31,-13.67c2.24,-0.1 4.47,-0.22 6.71,-0.35c-0.1,-0.99 -0.29,-2.97 -0.39,-3.96m-4.16,6.09c0.08,0.98 0.15,1.96 0.23,2.94c1.56,-0.1 3.13,-0.2 4.7,-0.29c-0.02,-0.72 -0.06,-2.16 -0.08,-2.87c-1.62,0.06 -3.23,0.14 -4.85,0.22m6.95,-0.51c0.01,0.71 0.02,2.11 0.02,2.82c1.53,-0.04 3.06,-0.09 4.6,-0.13c0,-0.74 0.02,-2.24 0.02,-2.99c-1.55,0.09 -3.09,0.19 -4.64,0.3m0.25,4.62c0.05,0.82 0.15,2.46 0.2,3.27c1.71,-0.14 3.43,-0.28 5.14,-0.43c0.18,-3.52 -2.97,-2.85 -5.34,-2.84m-6.86,0.69c0.05,0.76 0.14,2.28 0.18,3.05c1.54,-0.07 3.08,-0.14 4.63,-0.21c-0.01,-0.75 -0.02,-2.26 -0.02,-3.02c-1.6,0.06 -3.2,0.12 -4.79,0.18z" fill="#003081"/>
  <path id="svg_41" d="m106.12,271.42c4.5,1.25 9.03,2.44 13.59,3.49c-0.69,2.45 -1.36,4.91 -2.04,7.36c-1.84,-0.5 -3.69,-0.98 -5.54,-1.44c-1.08,3.22 -0.68,8.77 -5.54,8.24c-0.13,-0.56 -0.38,-1.67 -0.51,-2.22c3.48,-0.09 3.17,-4.11 4.12,-6.52c-1.98,-0.56 -3.97,-1.09 -5.96,-1.61c0.68,-2.42 1.31,-4.85 1.88,-7.3m1.58,2.7c-0.24,0.82 -0.72,2.45 -0.96,3.27c3.19,0.87 6.39,1.69 9.59,2.53c0.25,-0.81 0.75,-2.44 1,-3.26c-3.21,-0.86 -6.42,-1.7 -9.63,-2.54z" fill="#003081"/>
  <path id="svg_42" d="m138.87,272.36c2.53,0.19 5.06,0.37 7.6,0.53c-0.99,2.59 -1.99,5.19 -2.98,7.79c2.27,3.43 3.14,8.63 -1.11,10.94c-0.52,-0.36 -1.56,-1.08 -2.08,-1.43c-0.76,1.71 -1.22,3.68 -2.96,4.69c0.05,-7.53 1.39,-14.98 1.53,-22.52m2.01,2.1c-0.18,2.07 -0.35,4.14 -0.52,6.21c0.47,-0.24 1.42,-0.73 1.89,-0.97c0.36,-1.73 0.8,-3.44 1.23,-5.14c-0.87,-0.04 -1.74,-0.07 -2.6,-0.1m-0.77,8.71c-0.03,2.69 -0.86,6.22 3.28,5.51c-0.19,-2.5 -0.65,-4.96 -1.23,-7.39c-0.69,0.62 -1.37,1.25 -2.05,1.88z" fill="#003081"/>
  <path id="svg_43" d="m99.74,283.82c2.56,-1.25 5.08,-2.65 7.91,-3.2c-1.48,2.6 -4.29,3.82 -6.76,5.24c-0.28,-0.51 -0.86,-1.53 -1.15,-2.04z" fill="#003081"/>
  <path id="svg_44" d="m113.21,283.86c0.52,-0.17 1.57,-0.5 2.09,-0.66c1.17,1.68 2.36,3.36 3.57,5.02c-0.5,0.4 -1.49,1.2 -1.99,1.61c-1.2,-2.01 -2.43,-4 -3.67,-5.97z" fill="#003081"/>
 </g>
</svg>