<svg xmlns="http://www.w3.org/2000/svg" xmlns:xlink="http://www.w3.org/1999/xlink" clip-rule="evenodd" fill-rule="evenodd" stroke-linejoin="round" stroke-miterlimit="1.41421" viewBox="0 0 1000 500"><g clip-path="url(#b)" fill-rule="nonzero"><path d="m172.431 50.817c-13.48 2.18-23.974 4.682-36.082 8.718-49.562 16.386-91.537 52.549-115.269 99.125-10.736 21.149-16.952 41.007-20.18 64.173-2.018 14.127-1.373 49.482 1.049 62.156 11.22 58.361 44.074 106.228 93.475 136.579 19.857 12.108 45.365 22.118 64.496 25.266 2.26.403 7.507 1.291 11.704 1.937 5.57.969 13.4 1.292 28.656 1.292 20.423 0 22.037-.162 39.553-3.148 35.275-6.054 74.344-27.123 102.112-54.891 28.737-28.736 46.98-63.123 55.456-104.21 1.937-9.202 2.179-12.189 2.502-34.064.242-19.616.081-25.589-1.05-32.692-6.78-43.832-26.153-82.336-56.988-113.171-24.378-24.378-55.294-42.459-87.905-51.419-19.373-5.409-25.347-6.135-51.258-6.377-16.709-.242-25.347 0-30.271.726zm143.199 68.613c-.242.646-2.502 2.745-4.924 4.601-8.072 6.054-9.444 13.642-4.601 24.943 2.18 5.247 2.26 5.327 2.825 29.463.323 13.319.969 30.27 1.453 37.697 1.211 19.373-.242 32.611-3.955 34.548-2.018 1.05-8.314 1.05-10.736-.081-4.843-2.179-5.892-12.431-4.682-44.719.565-13.319 1.05-30.028 1.13-37.132.243-12.269.404-13.157 2.503-17.758 2.26-4.843 3.309-13.158 1.856-14.611-.888-.888-4.762 1.373-11.462 6.539-3.067 2.421-9.767 7.507-14.772 11.301-10.655 8.153-14.691 12.027-14.691 14.045 0 .888 1.291 6.054 2.906 11.543 5.005 16.871 4.601 24.782-1.857 37.132-2.906 5.65-6.619 9.444-17.435 18.243-9.848 7.991-13.4 14.207-12.351 21.714 1.05 7.91 5.166 12.673 20.907 24.297 5.812 4.359 12.189 9.686 14.126 11.866 7.023 7.991 10.655 18.888 10.655 32.288 0 14.691-4.036 25.185-13.157 34.226-6.135 6.054-9.202 8.152-17.759 12.188-17.355 8.315-42.701 11.705-62.72 8.476-30.19-4.924-51.338-19.857-54.809-38.746-2.906-15.66 9.928-36.001 28.898-45.849 12.673-6.619 33.015-10.978 51.177-11.059 2.986 0 5.408-.162 5.408-.323 0-.242-1.13-2.099-2.502-4.117-5.247-7.749-7.669-19.534-5.328-25.83.646-1.776 1.453-3.875 1.776-4.682.484-1.211 0-1.372-5.489-1.372-17.516 0-33.58-6.055-43.347-16.225-6.942-7.265-12.835-20.988-14.207-33.096l-.565-4.762h-27.929l-27.93-.081 2.906-2.583c1.614-1.453 16.144-14.046 32.288-28.091 16.225-14.046 34.468-29.948 40.603-35.356l11.139-9.767h72.569c62.881 0 72.487.161 72.083 1.13z"/><path d="m184.136 151.799c-18.243 6.781-25.346 33.096-15.256 57.15 5.489 13.077 16.628 25.589 27.687 31.078 5.57 2.745 6.619 2.987 12.915 2.987 5.651 0 7.588-.323 10.413-1.857 7.83-4.197 14.369-13.319 17.032-23.732 1.292-5.085 1.453-7.345.888-15.983-.968-16.063-5.973-27.041-17.355-38.503-9.121-9.203-14.772-11.866-25.427-12.109-5.166-.161-8.718.243-10.897.969z"/><path d="m194.63 291.123c-17.92 2.422-33.499 10.252-40.119 20.181-4.601 6.942-5.731 11.462-5.327 21.068.403 10.655 2.664 15.66 10.251 23.328 6.377 6.377 15.257 11.059 26.315 13.723 10.09 2.502 26.961 2.502 36.325 0 23.974-6.297 36.566-21.876 33.499-41.41-2.18-14.288-9.283-23.086-24.62-30.513-11.947-5.812-24.378-7.991-36.324-6.377z"/></g></svg>
