<?xml version="1.0" encoding="UTF-8"?>
<svg width="306px" height="386px" viewBox="0 0 306 386" version="1.1" xmlns="http://www.w3.org/2000/svg" xmlns:xlink="http://www.w3.org/1999/xlink">
    <!-- Generator: Sketch 52.5 (67469) - http://www.bohemiancoding.com/sketch -->
    <title>Group 8</title>
    <desc>Created with Sketch.</desc>
    <defs>
        <polygon id="path-1" points="0 0.288606129 305.535461 0.288606129 305.535461 385.999344 0 385.999344"></polygon>
    </defs>
    <g id="Page-1" stroke="none" stroke-width="1" fill="none" fill-rule="evenodd">
        <g id="Desktop-V.1" transform="translate(-548.000000, -1080.000000)">
            <g id="Group-8" transform="translate(548.000000, 1080.000000)">
                <g id="Group-3" transform="translate(0.500000, 0.000000)">
                    <mask id="mask-2" fill="white">
                        <use xlink:href="#path-1"></use>
                    </mask>
                    <g id="Clip-2"></g>
                    <path d="M150.545603,385.999344 C161.688214,381.337475 176.59531,373.457244 188.961052,360.580514 C189.144685,363.588912 188.882352,371.387125 188.039605,376.54766 C203.668118,364.087577 219.808182,339.754657 227.648671,315.464386 C231.422993,303.775267 231.98701,295.071582 227.963471,278.891191 C227.678184,277.746228 232.53791,271.585081 232.383789,264.072288 C232.298531,260.056716 230.409731,255.929601 230.409731,255.929601 C248.96654,249.643788 255.810163,247.160302 268.533334,231.12098 C269.06128,230.45828 274.291552,231.432646 276.249215,229.792299 C282.827225,224.287291 289.66429,214.494415 292.65817,206.617464 C294.366616,202.126192 294.996216,197.034552 295.173291,191.605001 C300.29863,186.034379 305.079657,179.742005 305.535461,166.740608 C301.361081,161.888459 291.979382,158.558553 275.950811,152.741879 C266.818329,149.428377 252.799887,143.949615 248.402523,141.252883 C250.704499,137.79503 252.39327,132.713232 252.255545,130.0165 C252.062074,126.292911 248.192657,120.15801 245.762793,115.194317 C243.621497,107.56998 242.155709,102.327428 240.073438,99.2402938 C237.18777,94.9721087 233.980744,93.3153574 228.625863,90.1626088 C234.774303,60.2590675 226.281258,53.0448176 225.231925,31.8187164 C210.049379,30.6442273 194.555312,52.9234319 190.643265,55.3970764 C185.190009,58.8418069 179.494095,64.7306557 179.494095,64.7306557 C164.869007,58.9336664 158.353301,58.5531057 147.984573,60.7938209 C140.976991,26.4055685 126.492908,7.07242871 101.945059,0.284669294 C90.1007055,36.2706205 80.1090817,54.3439731 77.7907102,57.7854229 C66.4480693,74.6383567 63.7493144,82.9385169 59.8011965,109.68931 C49.7439894,116.368806 42.870854,124.416353 37.6536983,132.926477 C27.4849994,149.503833 18.3885884,171.943791 5.18338029,190.364898 C8.5871563,220.202825 1.27789163,234.299975 -0.000983750292,263.235711 C13.7026578,309.805186 45.8516174,339.613587 103.374776,378.407814 C102.033597,368.395131 102.233626,359.727533 102.420538,354.170034 C115.353576,367.06973 133.415231,377.253009 150.545603,385.999344" id="Fill-1" fill="#000000" mask="url(#mask-2)"></path>
                </g>
                <path d="M281.853618,204.615587 C280.434967,208.164033 276.362486,214.431206 272.788008,215.447858 C271.746135,213.716269 270.104693,211.653448 268.56154,210.695826 C263.565134,211.128724 240.021415,223.971344 214.223578,217.179448 C198.477528,213.030848 185.686729,198.30578 168.092828,211.666566 C188.340558,212.479888 197.239075,222.046263 213.886116,225.955457 C229.805812,229.690836 237.0334,227.401728 247.645439,226.981948 C251.783446,226.817972 254.093259,227.267267 255.243252,227.877259 C255.872308,228.208491 255.947663,228.785687 255.4857,229.464549 C252.350251,234.0854 230.064642,248.292303 211.202801,244.156822 C197.694485,234.649478 184.43517,231.228934 174.196634,231.59952 C165.992699,231.897957 159.331917,234.836411 155.075962,238.355342 C166.425175,238.168409 174.419424,241.870993 181.250576,249.666424 C175.867563,250.256739 173.213734,253.031217 170.802354,256.937131 C194.726128,274.49243 185.591715,304.067188 176.047761,321.084644 C186.777748,318.861126 202.094598,306.05786 207.919916,297.537653 C208.748828,301.945335 208.548972,305.480663 207.972338,309.514479 C212.500228,304.654223 216.055048,300.80406 218.38452,294.012164 C220.782795,301.450127 217.902899,317.913343 202.880918,336.498412 C203.487039,332.254707 203.67379,328.207773 203.070945,324.760992 C193.068304,337.833179 174.848624,355.103159 154.188076,362 C137.957128,355.342564 113.712273,340.476476 89.4608659,319.835145 C88.7171386,325.590711 88.661441,329.916405 88.8612972,336.203255 C44.9617283,301.371418 39.3133324,288.404175 30.5,261.416963 C45.9741148,282.304259 62.0084823,292.641322 83.111335,306.231674 C83.0359794,301.630501 83.3308493,298.196838 84.1302742,294.156463 C100.472617,306.53667 120.684307,316.286699 138.923646,320.76325 C113.115981,301.128733 93.2024368,282.061574 81.2831419,261.744915 C79.9889909,265.726259 79.4320145,269.245189 78.8586564,274.564579 C72.8269297,268.789335 64.5443631,258.862213 61.5235852,247.957791 C59.6724578,250.230502 58.6862819,252.480257 57.4936972,256.494396 C47.6909126,239.437585 50.5511502,225.168371 58.7387032,213.64412 C60.9567798,228.07403 66.094068,234.921679 74.1964364,243.350059 C74.4061216,240.050856 74.8975714,236.259725 76.5357372,232.986759 C86.3123111,242.792539 98.6411475,249.672983 108.473419,251.722686 C117.601279,253.628091 125.975583,252.417946 132.246482,249.679542 C112.611426,241.930024 96.7343224,231.517532 83.0294267,200.489944 C89.0447718,204.300752 99.1784659,206.498034 106.615739,206.862061 C96.9210733,198.699323 86.9511958,190.047936 82.6559249,179.150074 C82.6559249,179.150074 91.0105709,177.749716 94.8274973,174.512825 C93.4350563,173.325637 91.4823626,170.495407 90.7320827,168.580164 C110.239362,161.575098 114.727936,151.969369 120.7269,148.017541 C123.587137,146.131814 136.89232,146.243318 141.459527,149.854075 C145.892404,153.359888 150.892086,163.949475 155.931084,166.615728 C161.006122,169.304939 176.621119,168.012806 182.459542,157.806924 C178.724524,158.958037 170.396089,158.551376 167.591549,157.085428 C160.403277,153.333652 156.127664,144.518288 142.678322,139.635075 C144.293554,137.382041 146.70821,135.201157 149.463605,133.777843 C145.915338,132.587375 142.236018,130.367137 139.791874,127.674647 C153.925969,118.541169 153.676968,107.800724 168.685844,109.571668 C168.115762,106.154402 165.832159,101.907417 162.604972,99.6970172 C169.4394,92.9936678 169.34111,81.8039279 181.420945,81.948227 C192.399933,82.079408 204.597716,96.8175941 213.964748,117.941016 C213.008059,103.989916 211.746672,97.9326327 207.78231,89.379631 C217.218146,96.935657 221.552733,102.573161 225.445015,118.977346 C226.260821,107.302236 226.450849,103.196271 228.203686,101.074418 C231.873178,102.4387 232.715195,105.068879 233.259066,106.334776 C234.261623,108.666519 235.4968,113.084039 237.321717,119.256105 C240.951893,124.965759 242.331228,128.330552 242.331228,129.734188 C242.331228,131.623195 241.544909,133.426934 240.535799,134.7617 C240.054178,133.672898 239.022133,132.131521 237.931115,131.347715 C235.948934,133.148174 235.739249,137.411557 232.079586,136.250605 C229.399547,135.397928 228.537872,134.161547 228.537872,134.161547 C229.193138,139.664591 230.909936,141.612629 234.137123,143.81319 C244.654148,151.001909 258.647361,155.445666 275.425455,161.952244 C269.914665,162.034232 264.020545,163.487061 261.235663,166.245142 C257.96916,169.478754 254.542117,177.270906 255.685557,180.127372 C257.015747,183.45609 264.358007,185.558266 267.916103,193.862024 C268.964529,196.311829 272.240861,199.027276 275.317336,200.365322 C277.751651,199.89307 281.788092,198.564863 283.488508,197.462942 C283.750614,199.624149 282.705464,202.480616 281.853618,204.615587 M294.434732,170.829918 C291.718653,166.901047 278.754208,169.872297 274.622754,173.538806 C276.955502,174.75223 278.338114,175.913182 279.91403,177.628374 C284.301038,175.385179 287.93449,175.2376 288.88135,176.41495 C289.664393,177.388969 289.225365,181.147305 288.101583,185.128648 C291.053558,182.370567 295.060511,175.827915 294.434732,170.829918 M141.410382,81.2004952 C137.033203,41.183729 120.264937,16.1183181 107.700205,15 C101.950243,31.6173541 84.3530648,63.8846023 87.1084598,100.802217 C84.8871068,100.041367 81.6238804,99.008317 78.9536701,97.2012986 C79.1633553,104.78684 77.8986912,112.129697 75.9230632,116.353726 C59.6691815,126.871163 50.5282159,143.593462 42.4717162,162.303153 C57.9589363,144.108347 72.2208083,129.619405 88.029109,126.113593 C90.112856,123.680185 92.5963154,120.135018 92.6389077,115.451856 C96.0626744,117.576989 100.96079,117.399894 103.922594,115.845399 C91.5478893,81.0463576 101.045975,48.9430856 111.392631,35.8282644 C116.300576,45.7586666 126.725863,47.6771889 129.061888,61.7824267 C125.562765,58.6275234 119.714513,57.725654 116.808407,58.8341335 C119.934027,66.0228527 120.448412,70.7748847 114.020249,83.260037 C114.809845,86.3690269 116.598722,89.8945165 119.436025,92.3148061 C115.710836,92.245936 111.569553,95.1024025 110.023124,98.6770849 C114.537909,98.6869235 118.138598,101.254792 119.626052,103.976798 C131.240648,95.9616381 134.402308,85.4114056 135.001877,81.0004442 C138.579631,82.6008525 141.410382,81.2004952 141.410382,81.2004952 M195.138946,72.4048087 C200.282787,74.9497202 206.910806,78.5932727 212.759058,82.0269356 C211.346959,77.8750567 210.498389,73.7264574 211.998949,68.6825476 C209.961071,68.59728 207.710231,69.5122675 206.222776,71.3815969 C204.859822,57.138619 209.705517,60.129546 214.774002,54.6133846 C215.104912,64.9602866 218.931667,65.599794 220.890914,82.1286009 C224.668524,63.9961062 218.800614,55.7841751 217.876688,44.2271284 C209.400818,44.5157266 198.719977,58.7291887 195.138946,72.4048087" id="Fill-4" fill="#FFFFFF"></path>
                <path d="M214.752187,142.080109 C213.175084,141.649942 211.797573,140.852966 211.08755,139.909267 C212.795533,138.338658 213.95382,136.221171 213.858932,133.77689 C211.774669,134.613881 207.053176,134.4038 204.726786,133.463435 C199.095678,131.185886 193.850665,118.684374 182.735688,116 C183.462072,117.220473 183.733648,118.964482 183.766368,121.225359 C174.967965,117.810702 165.266492,124.573323 158.5,130.805739 C165.122524,132.569756 174.545878,145.084606 180.098458,146.248391 C186.714438,147.632261 194.236761,145.594804 196.268671,143.724079 C201.968492,145.394727 208.352159,150.790151 212.494509,159 C217.022954,151.943932 217.618457,144.924544 214.752187,142.080109 M184.568007,139.208996 C182.516464,138.582086 179.031787,136.507949 177.376156,132.70981 C179.483322,130.962466 181.852249,129.952074 185.399094,130.028771 C188.301357,131.699418 190.225291,134.427142 193.147185,136.724699 C190.801163,139.132299 185.889894,139.612485 184.568007,139.208996" id="Fill-6" fill="#241F21"></path>
            </g>
        </g>
    </g>
</svg>